<?xml version="1.0" encoding="utf-8"?>
<!-- Generator: Adobe Illustrator 19.0.0, SVG Export Plug-In . SVG Version: 6.00 Build 0)  -->
<svg version="1.1" id="图层_1" xmlns="http://www.w3.org/2000/svg" xmlns:xlink="http://www.w3.org/1999/xlink" x="0px" y="0px"
	 width="153.1px" height="255.1px" viewBox="0 0 153.1 255.1" style="enable-background:new 0 0 153.1 255.1;" xml:space="preserve"
	>
<style type="text/css">
	.st0{fill:url(#XMLID_170_);}
	.st1{opacity:0.1;fill:#696868;enable-background:new    ;}
	.st2{fill:none;stroke:#50B4DF;stroke-miterlimit:10;}
</style>
<linearGradient id="XMLID_170_" gradientUnits="userSpaceOnUse" x1="76.5354" y1="-3.436071e-09" x2="76.5354" y2="255.1181">
	<stop  offset="0.2109" style="stop-color:#CFD0D2"/>
	<stop  offset="0.8282" style="stop-color:#8BCAEC"/>
</linearGradient>
<rect id="XMLID_27_" class="st0" width="153.1" height="255.1"/>
<path id="XMLID_31_" class="st1" d="M15.8,109.8c-2.6,2.8-4.4,6.3-4.8,10.1c-0.6,4.1,0.6,10.8,6.4,15.9c3,2.4,6.8,4.4,11.5,4.4
	c4.7,0,9.6-2.2,12.4-6.5c3-3.9,3.2-10.9-1-15.1c-3.7-4.4-12.5-5.1-15.9,0.6c-1.8,2.5-1.8,6.4,0.3,8.9c2,2.6,6.3,3.6,9,1.3
	c2.9-1.9,2.7-7-0.9-8.3c-3.7-1.9-7.2,4.1-3,5.7c-3.8-1.5-0.8-6.7,2.3-5.4c3,0.8,3.6,4.7,1.5,6.5c-1.9,1.9-5.1,1.5-6.8-0.2
	c-1.7-1.7-2.2-4.4-1-6.4c2.1-4.3,8.1-4.4,10.9-1.4c3.1,2.9,3.1,7.2,1.1,10c-4.4,6.2-12.2,4.7-15.6,1c-3.6-3.7-4-7.8-3.7-10.2
	c0.7-5.2,5.3-10.8,10.6-12.8c4.4-0.1,9.2,0.2,14.3,1.1c14.3,2.6,30.2,13.2,39,32.1c4.1,7.6,7.2,16.5,10.7,25.8
	c-1.7-1.7-3.6-3.5-5.8-5.2c-12.8-10.4-36.6-13.2-52.1-3.5c-7.1,4.2-16.3,13.8-17.6,28.4c0,0,0,0.1-0.1,0.1c-3.4,5-10.4,9.1-16.2,8.9
	c-0.4,0-0.8,0-1.3,0l0,7.6c0.5,0,0.9,0,1.3,0c6.4,0.1,12.5-3,16.6-7.3c0.9,5.8,3.2,11.8,7.7,17.1c6.2,7.3,16.6,12.3,27.7,11.3
	c10.8-0.4,22.6-8.8,23.9-21.2c0.7-6-0.7-12.5-5-17.5c-4.2-5-11.1-7.9-17.9-7.1c-6.7,0.4-13.3,5.5-14.6,12.4
	c-1.5,6.7,2.7,14.9,10.3,16.4c3.6,0.7,7.6,0,10.4-2.5c2.7-2.5,3.8-6.6,2.4-10.1c-1.1-3.6-5.2-6.1-9-5.4c-4,0.3-6.7,4.8-5.1,8.4
	c-1.4-3.4,0.9-7.4,4.5-8c3.4-0.8,7.2,1,8.6,4.1c3.4,6.4-2.8,13.7-9.5,12.7c-6.7-0.3-11.5-6.6-11.1-12.7c0.3-6,4.7-11.3,10.5-12.5
	c5.7-1.4,11.9,0.3,16.1,4c4.2,3.7,6.1,9.2,6,14.4c-0.1,10.7-8.9,18.8-18.4,19.6c-9.4,1.4-18.6-2.5-24-8.5c-5.4-6-7.3-13.8-7.2-20.4
	c0.5-13.6,9.1-22,15.1-25.5c12.5-7.9,32.8-6.7,44.9,1.5c6.5,4,10.8,8.9,13.5,12.6c4,9.1,8.9,18.2,16.2,26.7c3.5,4,7.4,8,11.7,11.5
	c-9.5-0.8-21,4-25.9,12.7c-2.9,4.7-5.4,13.1-1.7,22.6c0.3,0.8,0.7,1.5,1.1,2.3h7.5c-0.8-1.3-1.5-2.7-2-4c-2.6-7.4-0.3-13.8,1.7-17.1
	c4.1-7.2,14.7-12,23.1-10.4c2.2,0.3,4.2,0.9,6,1.5c5.4,4.1,11.7,6.9,17.6,8.4v-5.6c-13.2-4.7-25.5-18.1-27.5-31.6
	c-1.3-6.9-0.5-18.4,8.7-27.9c4.6-4.4,11.1-8.5,18.9-9.1v-5.8c-4.7,0.2-9,1.3-12.8,3c0,0,0,0,0-0.1c2.7-6.7,0.2-17.1-6.5-22.6
	c0.6,0.1,1.1,0,1.6,0c2.3-0.3,4.6-1.9,5.2-4.2c0.9-2.4-0.5-5.3-2.4-6.6c-2-1.3-3.8-1.6-5.5-1.6c-3.4,0-5.9,1.5-7.1,3
	c-1.3,1.3-2,3.1-2.2,5c-2.8-0.3-5.9-0.2-9.2,0.8c-3.7,1.3-7.5,3.6-10,7.8c-2.5,4.1-2.7,9.8,0.1,14.6c2.4,4.8,9,8.2,14.9,6.7
	c5.9-0.8,11.3-8.3,7.3-14.4c-1.6-2.9-5.3-4.8-8.7-4.2c-3.4,0.4-6.6,3.6-5.8,7.3c0.5,3.7,5.4,5.9,8.4,3.4c3.7-2.3-0.5-8.5-4-5.6
	c3.3-2.5,6.9,2.7,4,4.8c-2.3,2.1-6.3,0.7-7.1-2c-1-2.7,1.1-5.4,3.6-6c2.5-0.7,5.4,0.3,6.7,2.4c3.3,4.2,0.3,9.7-4.1,10.5
	c-4.3,1.2-8.7-0.9-10.5-4.2c-2-3.3-1.7-7.1-0.1-9.7c1.6-2.6,4.4-4.1,7-4.9c5.4-1.3,9.8,0.4,12,2.1c5,3.1,8.2,10.5,7.2,16.3
	c-0.3,2-0.8,3.8-1.5,5.3c-1.2,0.9-2.3,1.7-3.4,2.7c-12.3,11.2-13.7,26-12.1,34.5c1.1,6.1,3.7,12.1,7.4,17.4
	c-2.7-2.5-5.2-5.1-7.6-7.8c-17.5-19.8-20.9-44.6-29.9-64.5c-4.3-10.1-10.1-19.3-17.6-26c-0.7-0.6-1.3-1.2-2-1.7
	c-0.8-1.4-1.5-3-2.1-4.7c-4.3-10.5-1.4-25.6,6.9-33.4c3.8-3.7,11.4-8.3,21.8-6.8c5,0.8,10.7,3.1,14.6,7.7c3.9,4.5,6,11.4,4,18.2
	c-1.7,6.8-8.2,12.8-16.6,12.2c-8.2,0-16.7-8.2-13.6-17.2c1.1-4.4,5.3-7.7,10.1-7.7c4.8-0.1,9.9,3.5,9.9,8.7
	c0.5,5.1-5.4,9.8-10.5,6.7c-2.4-1.2-3.6-4.2-2.6-6.7c0.8-2.6,4.3-3.8,6.7-2.3c-2.2-1.6-5.7-0.7-6.8,1.7c-1.3,2.3-0.7,5.5,1.5,7.2
	c4.5,3.9,11.9,0.7,12.6-4.9c1.3-5.4-3.2-10.8-8.6-11.9c-5.3-1.1-11.3,1.3-13.6,6.1c-6,9.3,1.8,22,11.8,23.5
	c9.9,2.6,20.2-3.4,23.5-11.7c3.8-8.1,2.4-17.5-2.2-24.1c-4.8-6.7-11.9-10.3-18.4-11.8c-12.5-2.7-22.5,2-27.9,6.7
	c-1.1-3.8-4.1-7.6-7.9-9.1c-2.2-1.2-6.4-2.2-10.8-0.7c-4.3,1.3-9.2,5.1-9.8,11.7c-1,6.7,8,13.4,14.7,9.1c3-1.7,5.4-6.1,2.9-9.6
	c-2.3-3.6-8.1-3.1-9.6,0.7c1.8-3.3,6.7-3.3,8.4-0.5c1.9,2.7,0.1,5.9-2.3,7.1c-5.2,2.8-10.2-2.3-9.4-5.7c0.6-3.6,4.2-5.9,6.7-6.2
	c2.7-0.5,4.6,0.2,5.9,0.9c2.7,1.1,5.2,3.7,6.1,6.5c0.1,0.3,0.2,0.6,0.3,0.9c-7.1,9.6-8.4,23.7-4.4,33.9c-4.6-2.5-9.4-4.4-14-5.6
	c-16.8-4-30.2-1.1-38.8,1c-2.4,0.6-4.7,1.3-7.1,2.2v7.9c3.1-1.2,6.2-2.2,9.3-3C11.3,110.8,13.5,110.2,15.8,109.8 M153.1,187.1v-0.7
	C153.1,186.6,149.2,186.5,153.1,187.1 M144.5,195c1.8,3.8,4.9,6.9,8.6,8.9v-3c-1.9-1.1-3.6-2.6-4.9-4.4c-3.8-4.6-4.3-11.4-0.8-16.5
	c1.3-2,3.4-3.6,5.7-4.6v-1.7c-2,0.6-3.8,1.7-5.3,3C142.9,181.3,141.4,189,144.5,195 M128.5,236.1c-3.7-2.1-8.7-1.9-12.3,0.4
	c-3.7,2.2-5.8,6.9-4.7,11.2c0.6,3,3,6.1,6.2,7.1c1.2,0.4,2.6,0.5,3.9,0.1c0.2,0,0.3-0.1,0.5-0.1c4.4-1.2,6.7-7.1,3.3-10.7
	c-1.5-1.9-4.6-2.4-6.5-0.9c-2,1.4-2.4,4.4-0.6,6.2c-1.6-1.7-1.2-4.4,0.5-5.7c1.6-1.4,4.3-1.2,5.7,0.3c3.2,3,1.8,8.4-2,9.6
	c-3.7,1.6-7.7-1.1-8.8-4.5c-1.2-3.4-0.2-7.3,2.5-9.4c5.5-4.8,13.9-1,15.5,5.1c1.3,3.5,0.9,7.2-0.6,10.2h4.7c0.9-3,1-6.2,0-9.4
	C134.6,241.8,132.3,238.2,128.5,236.1"/>
<rect id="XMLID_28_" x="42.1" y="32.8" class="st2" width="68.9" height="100.3"/>
<g id="XMLID_29_">
	<path id="XMLID_141_" d="M58.8,65.1c0,1.7-0.3,3.3-0.9,4.9s-1.5,3-2.8,4.4c-0.5,0.5-0.8,0.8-0.9,0.8s-0.3-0.1-0.4-0.2
		s-0.2-0.2-0.2-0.4c0-0.2,0.2-0.4,0.5-0.7c1.2-1.1,2.1-2.4,2.7-3.9c0.6-1.5,0.9-3.1,0.9-4.8v-8c0-0.5,0.2-0.8,0.5-0.8
		c0.2,0,0.3,0.1,0.4,0.2s0.1,0.3,0.1,0.6V65.1z M62.3,68.9c0,0.4-0.2,0.6-0.5,0.6c-0.3,0-0.5-0.2-0.5-0.6V55.6c0-0.4,0-0.7-0.1-0.8
		c-0.1-0.1-0.3-0.2-0.8-0.2h-4.2c-0.4,0-0.7,0.1-0.8,0.2c-0.1,0.2-0.1,0.4-0.1,0.8V69c0,0.4-0.2,0.6-0.5,0.6c-0.3,0-0.5-0.2-0.5-0.6
		V55.5c0-0.8,0.1-1.3,0.3-1.5c0.2-0.2,0.7-0.3,1.6-0.3h4.2c0.8,0,1.3,0.1,1.6,0.3c0.2,0.2,0.3,0.8,0.3,1.6V68.9z M59.2,69.6
		c0,0,0.1,0,0.1,0c0,0,0.1,0,0.1,0.1c0.1,0,0.1,0.1,0.2,0.3c0.1,0.1,0.2,0.3,0.4,0.5c0.2,0.2,0.4,0.5,0.6,0.8
		c0.2,0.3,0.5,0.7,0.8,1.1c0.3,0.4,0.5,0.7,0.6,0.9c0.2,0.2,0.3,0.4,0.3,0.4c0.1,0.1,0.1,0.2,0.1,0.3c0,0.1-0.1,0.2-0.2,0.3
		c-0.1,0.1-0.2,0.2-0.4,0.2s-0.3-0.1-0.4-0.4c-0.7-1.2-1.5-2.4-2.6-3.6c-0.2-0.2-0.3-0.4-0.2-0.6C58.9,69.7,59,69.6,59.2,69.6z
		 M69.1,56.2h6.3c0.2,0,0.3,0,0.4,0.1c0.1,0.1,0.1,0.3,0.1,0.5c0,0.3-0.2,0.4-0.5,0.4h-6.3v5.3H73c0.6,0,1.1,0.2,1.5,0.5
		s0.6,0.8,0.6,1.4v8.1c0,0.6-0.2,1-0.6,1.3c-0.4,0.3-0.9,0.5-1.5,0.5h-6.8c-1.3,0-2-0.6-2-1.8v-8.1c0-0.6,0.2-1,0.5-1.4
		c0.4-0.3,0.9-0.5,1.5-0.5h1.9v-9.5c0-0.2,0-0.3,0.1-0.4c0.1-0.1,0.2-0.1,0.5-0.1c0.3,0,0.4,0.2,0.4,0.5V56.2z M74,72.5v-8.1
		c0-0.6-0.3-0.8-1-0.8h-6.9c-0.6,0-0.9,0.3-0.9,0.8v8.1c0,0.3,0.1,0.5,0.2,0.6c0.1,0.1,0.4,0.1,0.7,0.1H73c0.3,0,0.5-0.1,0.7-0.2
		C73.9,72.9,74,72.8,74,72.5z"/>
	<path id="XMLID_147_" d="M81.9,70c0,0.4-0.5,1.3-1.5,2.7c-1,1.5-1.7,2.2-2.2,2.2c-0.1,0-0.2,0-0.3-0.1c-0.1,0-0.2-0.1-0.2-0.2
		c0-0.1,0-0.2,0-0.3c0-0.1,0.2-0.3,0.4-0.5c1.1-1.1,2-2.3,2.7-3.8c0.2-0.4,0.4-0.5,0.6-0.5c0.1,0,0.2,0,0.3,0.1
		C81.9,69.7,81.9,69.8,81.9,70z M84.5,66.9c0,0.6-0.1,1-0.3,1.3s-0.6,0.3-1.2,0.3H80c-0.6,0-1-0.1-1.2-0.3c-0.2-0.2-0.3-0.7-0.3-1.3
		V55.2c0-0.6,0.1-1,0.3-1.2c0.2-0.2,0.6-0.3,1.2-0.3H83c0.6,0,1,0.1,1.2,0.3s0.3,0.6,0.3,1.2V66.9z M83.6,60.4v-5.1
		c0-0.6-0.3-0.9-0.8-0.9h-2.6c-0.5,0-0.7,0.3-0.7,0.9v5.1H83.6z M83.6,66.8v-5.5h-4.1v5.4c0,0.3,0.1,0.5,0.2,0.6
		c0.1,0.2,0.3,0.3,0.5,0.3h2.6C83.3,67.6,83.6,67.3,83.6,66.8z M85.1,69.8c0.1,0,0.3,0.1,0.5,0.3c0.2,0.2,0.4,0.6,0.7,1.3
		c0.3,0.6,0.6,1.2,0.7,1.8c0.2,0.6,0.3,1,0.3,1.3s-0.2,0.4-0.5,0.4c-0.1,0-0.2-0.1-0.3-0.2c-0.1-0.1-0.2-0.3-0.3-0.7
		c-0.3-1.2-0.8-2.3-1.3-3.2c-0.1-0.2-0.2-0.4-0.3-0.5c0-0.1,0-0.2,0-0.3c0-0.1,0.1-0.1,0.2-0.2C85,69.9,85,69.9,85.1,69.8z
		 M91.8,54.6c-0.7,2.3-1.7,4-3.2,5.2c-1.5,1.2-2.4,1.8-2.8,1.8c-0.1,0-0.2-0.1-0.3-0.2s-0.1-0.2-0.1-0.3c0-0.2,0.2-0.5,0.6-0.6
		c0.7-0.4,1.3-0.7,1.8-1.1c0.5-0.4,1-0.8,1.3-1.3c0.4-0.5,0.7-1,1-1.5c0.3-0.6,0.5-1.2,0.7-1.9h-4.1c-0.3,0-0.5-0.2-0.5-0.5
		c0-0.3,0.2-0.5,0.5-0.5H97c0.5,0,1,0.1,1.3,0.4c0.3,0.3,0.5,0.7,0.5,1.2c0,0.5-0.1,1.4-0.2,2.6c-0.1,1.2-0.4,2-0.8,2.4
		c-0.2,0.2-0.4,0.3-0.7,0.4c-0.3,0.1-0.6,0.2-1,0.2c-0.4,0-0.8,0-1.3,0s-0.9-0.1-1.4-0.2s-0.9-0.2-1.2-0.2c-0.3-0.1-0.5-0.1-0.6-0.2
		c-0.2-0.1-0.3-0.2-0.3-0.4c0-0.4,0.2-0.6,0.6-0.6c0.2,0,0.4,0,0.6,0.1c1.6,0.4,2.6,0.6,3.3,0.6c0.6,0,1.1-0.2,1.4-0.5
		c0.3-0.3,0.5-0.9,0.6-1.8c0.1-0.7,0.1-1.2,0.2-1.6c0-0.4,0-0.7,0-0.9c-0.1-0.2-0.2-0.4-0.3-0.4s-0.4-0.1-0.7-0.1H91.8z M98.3,67.1
		c0,0.6-0.1,1-0.4,1.3c-0.2,0.2-0.6,0.4-1.2,0.4h-8.6c-0.6,0-1-0.1-1.2-0.4c-0.2-0.2-0.3-0.7-0.3-1.3v-3.2c0-0.6,0.1-1.1,0.3-1.3
		c0.2-0.2,0.6-0.4,1.2-0.4h8.5c0.6,0,1,0.1,1.3,0.4s0.4,0.7,0.4,1.3V67.1z M97.4,66.9V64c0-0.6-0.3-0.9-0.8-0.9h-8.3
		c-0.5,0-0.7,0.3-0.7,0.9v2.9c0,0.3,0.1,0.5,0.2,0.6s0.3,0.3,0.5,0.3h8.3C97.1,67.8,97.4,67.5,97.4,66.9z M90.8,69.8
		c0.2,0,0.4,0.2,0.6,0.6l1.1,2.1c0.5,1,0.8,1.7,0.8,2c0,0.4-0.2,0.5-0.6,0.5c-0.1,0-0.2-0.1-0.3-0.2c-0.1-0.1-0.2-0.3-0.3-0.7
		c-0.2-0.5-0.4-1-0.6-1.6c-0.3-0.6-0.6-1.1-1-1.8c-0.1-0.2-0.2-0.4-0.3-0.5c0-0.1,0-0.2,0-0.3c0-0.1,0.1-0.1,0.2-0.2
		S90.7,69.8,90.8,69.8z M96.1,69.5c0.2,0,0.3,0.1,0.4,0.2c0.1,0.1,0.6,0.7,1.3,1.6c0.7,0.9,1.2,1.7,1.5,2.2c0.2,0.4,0.4,0.7,0.4,0.9
		c0,0.2,0,0.3,0,0.4c0,0.1-0.1,0.2-0.2,0.2c-0.1,0-0.2,0.1-0.2,0.1c-0.2,0-0.4-0.3-0.7-0.8c-0.5-0.9-1.4-2.2-2.7-3.7
		c-0.3-0.3-0.4-0.6-0.3-0.7C95.8,69.6,96,69.5,96.1,69.5z"/>
	<path id="XMLID_158_" d="M66.9,88.1v-6.2c0-0.3,0.2-0.5,0.5-0.5c0.4,0,0.5,0.2,0.5,0.5v6.2h7.5c0.3,0,0.5,0.2,0.5,0.5
		s-0.2,0.5-0.5,0.5H58.7v4.2h10.8c0.4,0,0.7,0,0.9,0.1c0.2,0.1,0.4,0.2,0.6,0.3c0.1,0.1,0.2,0.3,0.3,0.6c0,0.2,0.1,0.6,0.1,0.9v8.1
		c0,0.3-0.2,0.5-0.5,0.5c-0.3,0-0.5-0.2-0.5-0.5v-8.1c0-0.5-0.3-0.8-0.8-0.8H58.7c0,2.4-0.4,4.6-1.1,6.5s-1.3,2.8-1.8,2.8
		c-0.3,0-0.5-0.1-0.5-0.3c0-0.2,0.1-0.5,0.3-0.9c0.7-1.2,1.2-2.5,1.5-4c0.3-1.4,0.5-3.1,0.5-5.1V82.7c0-0.4,0.2-0.6,0.6-0.6
		c0.2,0,0.3,0,0.4,0.1c0.1,0.1,0.1,0.2,0.1,0.5v5.4H66.9z"/>
	<path id="XMLID_160_" d="M80.1,91.7c-0.1,0.5-0.3,0.9-0.5,1.4c-0.2,0.5-0.4,1-0.6,1.6c-0.4,1.1-0.7,1.7-0.8,1.9
		c-0.1,0.1-0.2,0.2-0.4,0.2c-0.2,0-0.3-0.1-0.4-0.3c-0.1-0.2,0-0.5,0.1-0.8c0.8-1.7,1.6-4,2.2-6.8c0.3-1.4,0.6-2.6,0.8-3.8
		c0.2-1.1,0.3-2.1,0.3-3c0-0.3,0.1-0.6,0.1-0.7c0.1-0.1,0.2-0.2,0.4-0.2c0.1,0,0.2,0.1,0.3,0.1c0.1,0,0.1,0.1,0.2,0.3
		c0,0.1,0,0.4,0,0.7c0,0.3-0.1,0.9-0.1,1.5h4.9c0.6,0,1,0.1,1.2,0.3s0.3,0.6,0.3,1.2c0,0.3,0,0.8-0.1,1.5c-0.1,0.7-0.2,1.6-0.3,2.7
		c-0.1,1.1-0.3,2.1-0.5,3c-0.2,0.9-0.4,1.7-0.6,2.4c-0.5,1.4-1.1,2.6-1.8,3.6c1.1,1.3,2.6,2.3,4.5,2.8c2,0.5,5,0.8,9,0.8
		c0.3,0,0.6,0,0.8,0s0.3,0,0.4,0.1c0.1,0,0.2,0.1,0.2,0.2c0,0.1,0,0.2,0,0.3c0,0.2-0.1,0.4-0.2,0.5c-0.2,0.1-0.5,0.1-1.1,0.1
		c-4.3,0-7.5-0.3-9.5-0.8c-2-0.5-3.6-1.5-4.8-3c-0.4,0.5-0.9,1-1.5,1.5c-0.6,0.5-1.3,1-2.1,1.4c-1.6,0.9-2.5,1.4-2.8,1.4
		s-0.4-0.2-0.4-0.5c0-0.3,0.2-0.5,0.6-0.7c2.7-1.3,4.6-2.6,5.6-3.9C82.4,97,81.2,94.6,80.1,91.7z M81.7,84.8
		c-0.1,0.9-0.3,1.8-0.5,2.6s-0.4,1.7-0.6,2.6c1,3.1,2.3,5.6,3.6,7.7c0.4-0.6,0.7-1.2,0.9-1.7c0.3-0.5,0.5-1.1,0.7-1.8
		s0.4-1.4,0.6-2.2c0.2-0.8,0.3-1.9,0.5-3.1c0.2-1.6,0.3-2.6,0.3-3.1c0-0.2,0-0.4,0-0.6S87.1,85,87,85c-0.1-0.1-0.2-0.1-0.3-0.1
		c-0.1,0-0.3,0-0.6,0H81.7z M93.1,88.1v12.6c0,0.4-0.2,0.6-0.5,0.6c-0.3,0-0.5-0.2-0.5-0.6V81.8c0-0.4,0.2-0.6,0.5-0.6
		c0.4,0,0.5,0.2,0.5,0.6v4.9c0.6,0.7,1.3,1.4,2,2.3c0.7,0.8,1.5,1.8,2.3,2.9c1.6,2.1,2.4,3.4,2.4,3.8c0,0.1-0.1,0.2-0.2,0.3
		c-0.1,0.1-0.2,0.1-0.3,0.1c-0.2,0-0.4-0.2-0.7-0.6c-0.5-0.8-1.2-1.9-2.3-3.4C95.2,90.7,94.2,89.3,93.1,88.1z"/>
</g>
<g id="XMLID_30_">
	<path id="XMLID_110_" d="M22.9,175c-0.2,0.3-0.4,0.6-0.6,0.8c-0.2,0.3-0.5,0.6-0.9,0.9c-0.7,0.6-1.1,1-1.3,1c0,0-0.1,0-0.1,0
		c-0.1,0-0.1-0.1-0.1-0.1c0-0.1,0-0.1,0-0.2s0.1-0.2,0.3-0.3c1-0.7,1.8-1.5,2.3-2.5c-0.4-0.4-0.7-0.7-1-1c-0.3-0.2-0.5-0.4-0.6-0.6
		c-0.3-0.3-0.4-0.5-0.4-0.8c0-0.1,0-0.3,0.1-0.4c0.4-1.1,0.8-2.5,1.1-4.3h-1.5c-0.1,0-0.2-0.1-0.2-0.3c0-0.2,0.1-0.3,0.2-0.3h1.6
		c0.1-0.4,0.1-0.8,0.1-1.1c0-0.3,0.1-0.7,0.1-0.9c0-0.3,0.1-0.5,0.3-0.5c0.2,0,0.3,0.1,0.3,0.4c0,0.1,0,0.2,0,0.3
		c0,0.1,0,0.3-0.1,0.6c0,0.2-0.1,0.5-0.1,0.7s-0.1,0.4-0.1,0.6h1.5c0.4,0,0.6,0.1,0.8,0.2c0.2,0.2,0.2,0.4,0.2,0.9
		c0,0.2,0,0.5-0.1,1c-0.1,0.4-0.2,1-0.3,1.7c-0.3,1.4-0.7,2.6-1.3,3.8c0.2,0.2,0.6,0.6,1,1.1c0.2,0.2,0.4,0.4,0.5,0.6
		c0.1,0.1,0.2,0.2,0.2,0.3c0.1,0.1,0.1,0.2,0.1,0.3c0,0.1-0.1,0.2-0.2,0.2c-0.1,0-0.3-0.1-0.5-0.4L22.9,175z M22.7,174.1
		c0.2-0.5,0.5-1,0.6-1.6s0.3-1.1,0.4-1.8c0.1-0.6,0.2-1.2,0.3-1.6c0.1-0.4,0.1-0.8,0.1-1.1c0-0.2,0-0.4-0.1-0.4s-0.2-0.1-0.5-0.1
		h-1.3c-0.1,0.8-0.3,1.6-0.5,2.2s-0.3,1.4-0.5,2c-0.1,0.2-0.1,0.4-0.1,0.5c0,0.1,0,0.2,0.1,0.3c0,0,0.1,0.1,0.1,0.2
		c0.1,0.1,0.1,0.1,0.2,0.2C21.7,173.1,22.1,173.5,22.7,174.1z M29.6,167.3h2.9c0.2,0,0.3,0.1,0.3,0.3c0,0.2-0.1,0.3-0.3,0.3h-2.9v4
		h2.7c0.1,0,0.1,0,0.2,0.1c0,0.1,0.1,0.1,0.1,0.2c0,0.1,0,0.2-0.1,0.2c0,0.1-0.1,0.1-0.2,0.1h-2.7v4.3h3.2c0.1,0,0.1,0,0.2,0.1
		c0,0.1,0.1,0.1,0.1,0.2c0,0.1,0,0.2-0.1,0.2c0,0.1-0.1,0.1-0.2,0.1h-7.4c-0.1,0-0.2,0-0.2-0.1s-0.1-0.1-0.1-0.2
		c0-0.1,0-0.2,0.1-0.2c0-0.1,0.1-0.1,0.2-0.1H29v-4.3h-2.8c-0.1,0-0.2,0-0.2-0.1c0-0.1-0.1-0.1-0.1-0.2c0-0.1,0-0.2,0.1-0.2
		c0-0.1,0.1-0.1,0.2-0.1H29v-4h-2.5c-0.1,0.3-0.1,0.5-0.2,0.8c-0.1,0.3-0.1,0.5-0.2,0.8c-0.2,0.5-0.3,0.8-0.3,1
		c0,0.1-0.1,0.2-0.2,0.3c-0.1,0.1-0.1,0.1-0.2,0.1s-0.1,0-0.2-0.1c-0.1,0-0.1-0.1-0.1-0.2c0-0.1,0-0.2,0.1-0.5
		c0.3-0.7,0.5-1.4,0.7-2.2c0.1-0.4,0.2-0.8,0.3-1.1c0.1-0.3,0.1-0.6,0.1-0.8c0.1-0.5,0.1-0.7,0.1-0.8c0-0.1,0.1-0.1,0.2-0.1
		c0.2,0,0.3,0.1,0.3,0.3c0,0.3-0.1,0.9-0.3,1.8H29v-2.7c0-0.2,0.1-0.3,0.3-0.3c0.2,0,0.3,0.1,0.3,0.3V167.3z"/>
	<path id="XMLID_114_" d="M38.8,165.7h5.7c0.3,0,0.6,0.1,0.8,0.2c0.2,0.1,0.3,0.2,0.3,0.4c0,0.4-0.6,1.2-1.9,2.4
		c-1.3,1.2-2.9,2.2-5.1,3h5.9c0.2,0,0.4,0,0.5,0c0.1,0,0.3,0.1,0.3,0.1s0.1,0.2,0.2,0.3c0,0.1,0.1,0.3,0.1,0.5v3.4
		c0,0.2,0,0.4,0,0.5c0,0.1-0.1,0.2-0.2,0.3c-0.1,0.1-0.2,0.1-0.3,0.2s-0.3,0-0.6,0h-6.8c-0.2,0-0.4,0-0.5,0s-0.3-0.1-0.3-0.1
		s-0.1-0.2-0.2-0.3c0-0.1,0-0.3,0-0.5v-3.4c0-0.2,0-0.3,0.1-0.4c-0.6,0.2-1.2,0.3-1.8,0.4c-0.5,0.1-0.9,0.2-1,0.2
		c-0.1,0-0.2-0.1-0.2-0.3c0-0.2,0.2-0.3,0.5-0.4c2.6-0.5,4.8-1.2,6.6-2.1c-0.7-0.5-1.4-0.9-2-1.3s-1.2-0.7-1.7-1
		c-0.2-0.1-0.3-0.2-0.3-0.3c-1,0.8-1.7,1.2-1.9,1.2c-0.1,0-0.2,0-0.2-0.1c0,0-0.1-0.1-0.1-0.1c0,0,0-0.1,0-0.1c0,0,0.1-0.1,0.1-0.2
		c0.1-0.1,0.2-0.1,0.3-0.2c0.7-0.4,1.4-0.9,2.1-1.5c0.7-0.6,1.2-1.2,1.7-1.8c0.2-0.2,0.3-0.3,0.4-0.3s0.1,0,0.2,0.1s0.1,0.1,0.1,0.2
		C39.5,164.9,39.3,165.2,38.8,165.7z M41.4,169.8c1-0.6,1.8-1.2,2.5-1.9c0.7-0.7,1-1.2,1-1.4c0-0.1-0.2-0.2-0.5-0.2h-6
		c-0.1,0.1-0.3,0.3-0.5,0.5c-0.2,0.2-0.4,0.3-0.6,0.5c0.1,0,0.3,0.1,0.6,0.3c0.2,0.1,0.4,0.2,0.6,0.4c0.3,0.2,0.5,0.3,0.8,0.5
		c0.3,0.2,0.6,0.4,1,0.7S41,169.5,41.4,169.8z M45.1,176.2v-3.5c0-0.3-0.2-0.4-0.5-0.4h-6.8c-0.4,0-0.5,0.1-0.5,0.4v3.5
		c0,0.3,0.2,0.4,0.5,0.4h6.8c0.1,0,0.3,0,0.4-0.1C45.1,176.4,45.1,176.3,45.1,176.2z"/>
	<path id="XMLID_118_" d="M50.8,168.5c0.2,0,0.4,0.1,0.6,0.2s0.2,0.3,0.2,0.6c0,0.2-0.1,0.4-0.2,0.6c-0.2,0.2-0.3,0.2-0.6,0.2
		s-0.4-0.1-0.6-0.2c-0.2-0.2-0.2-0.3-0.2-0.6c0-0.2,0.1-0.4,0.2-0.6S50.6,168.5,50.8,168.5z M50.8,173.7c0.2,0,0.4,0.1,0.6,0.2
		s0.2,0.3,0.2,0.6c0,0.2-0.1,0.4-0.2,0.6s-0.3,0.2-0.6,0.2s-0.4-0.1-0.6-0.2s-0.2-0.3-0.2-0.6c0-0.2,0.1-0.4,0.2-0.6
		S50.6,173.7,50.8,173.7z"/>
	<path id="XMLID_121_" d="M68.6,177.8c0,0.2-0.1,0.3-0.3,0.3h-6.5c-0.1,0-0.3,0-0.3-0.1s-0.1-0.1-0.1-0.2c0-0.1,0-0.2,0.1-0.3
		s0.2-0.1,0.3-0.1h6.5C68.5,177.4,68.6,177.5,68.6,177.8z"/>
	<path id="XMLID_123_" d="M75.8,177.8c0,0.2-0.1,0.3-0.3,0.3H69c-0.1,0-0.3,0-0.3-0.1s-0.1-0.1-0.1-0.2c0-0.1,0-0.2,0.1-0.3
		s0.2-0.1,0.3-0.1h6.5C75.7,177.4,75.8,177.5,75.8,177.8z"/>
	<path id="XMLID_125_" d="M83.1,177.8c0,0.2-0.1,0.3-0.3,0.3h-6.5c-0.1,0-0.3,0-0.3-0.1s-0.1-0.1-0.1-0.2c0-0.1,0-0.2,0.1-0.3
		s0.2-0.1,0.3-0.1h6.5C83,177.4,83.1,177.5,83.1,177.8z"/>
	<path id="XMLID_127_" d="M90.3,177.8c0,0.2-0.1,0.3-0.3,0.3h-6.5c-0.1,0-0.3,0-0.3-0.1s-0.1-0.1-0.1-0.2c0-0.1,0-0.2,0.1-0.3
		s0.2-0.1,0.3-0.1H90C90.2,177.4,90.3,177.5,90.3,177.8z"/>
	<path id="XMLID_129_" d="M97.5,177.8c0,0.2-0.1,0.3-0.3,0.3h-6.5c-0.1,0-0.3,0-0.3-0.1s-0.1-0.1-0.1-0.2c0-0.1,0-0.2,0.1-0.3
		s0.2-0.1,0.3-0.1h6.5C97.4,177.4,97.5,177.5,97.5,177.8z"/>
	<path id="XMLID_131_" d="M104.8,177.8c0,0.2-0.1,0.3-0.3,0.3h-6.5c-0.1,0-0.3,0-0.3-0.1s-0.1-0.1-0.1-0.2c0-0.1,0-0.2,0.1-0.3
		s0.2-0.1,0.3-0.1h6.5C104.7,177.4,104.8,177.5,104.8,177.8z"/>
	<path id="XMLID_133_" d="M112,177.8c0,0.2-0.1,0.3-0.3,0.3h-6.5c-0.1,0-0.3,0-0.3-0.1s-0.1-0.1-0.1-0.2c0-0.1,0-0.2,0.1-0.3
		s0.2-0.1,0.3-0.1h6.5C111.9,177.4,112,177.5,112,177.8z"/>
	<path id="XMLID_135_" d="M119.2,177.8c0,0.2-0.1,0.3-0.3,0.3h-6.5c-0.1,0-0.3,0-0.3-0.1s-0.1-0.1-0.1-0.2c0-0.1,0-0.2,0.1-0.3
		s0.2-0.1,0.3-0.1h6.5C119.1,177.4,119.2,177.5,119.2,177.8z"/>
	<path id="XMLID_137_" d="M126.5,177.8c0,0.2-0.1,0.3-0.3,0.3h-6.5c-0.1,0-0.3,0-0.3-0.1s-0.1-0.1-0.1-0.2c0-0.1,0-0.2,0.1-0.3
		s0.2-0.1,0.3-0.1h6.5C126.4,177.4,126.5,177.5,126.5,177.8z"/>
	<path id="XMLID_139_" d="M133.7,177.8c0,0.2-0.1,0.3-0.3,0.3h-6.5c-0.1,0-0.3,0-0.3-0.1s-0.1-0.1-0.1-0.2c0-0.1,0-0.2,0.1-0.3
		s0.2-0.1,0.3-0.1h6.5C133.6,177.4,133.7,177.5,133.7,177.8z"/>
</g>
<g id="XMLID_32_">
	<path id="XMLID_73_" d="M20.8,187.5h-0.6c-0.2,0-0.3-0.1-0.3-0.2c0-0.1,0-0.2,0-0.3c0,0,0.1-0.1,0.2-0.1h5.1c0.2,0,0.3,0.1,0.3,0.3
		c0,0.2-0.1,0.3-0.3,0.3h-0.7v8.3c0.4-0.2,0.7-0.3,0.8-0.3c0.1,0,0.2,0,0.2,0.1s0.1,0.1,0.1,0.2c0,0.1-0.1,0.2-0.3,0.3l-0.7,0.4v2.8
		c0,0.2-0.1,0.3-0.3,0.3s-0.3-0.1-0.3-0.3v-2.5c-0.6,0.3-1.1,0.5-1.6,0.7s-0.9,0.3-1.2,0.5c-0.3,0.1-0.6,0.2-0.8,0.3
		c-0.2,0.1-0.3,0.1-0.4,0.1c-0.1,0-0.2-0.1-0.2-0.3c0-0.2,0.1-0.3,0.3-0.4c0.2-0.1,0.4-0.1,0.6-0.2V187.5z M24,187.5h-2.7v2.7H24
		V187.5z M24,190.8h-2.7v2.7H24V190.8z M21.3,197.1c0.5-0.2,0.9-0.3,1.4-0.5c0.4-0.2,0.9-0.4,1.3-0.5V194h-2.7V197.1z M28.1,194.4
		c0,0.1-0.2,0.6-0.5,1.3c-0.2,0.4-0.3,0.7-0.5,1.1c-0.2,0.4-0.4,0.7-0.6,1.1c-0.4,0.7-0.7,1.2-0.8,1.2c-0.1,0.1-0.2,0.1-0.3,0.1
		c-0.1,0-0.2,0-0.2-0.1c-0.1-0.1-0.1-0.1-0.1-0.2s0-0.2,0.1-0.3c0.8-1,1.6-2.4,2.3-4.3c0.1-0.2,0.2-0.3,0.3-0.3c0.1,0,0.1,0,0.2,0.1
		C28,194.2,28.1,194.3,28.1,194.4z M32.2,192.7c0,0.4-0.1,0.6-0.2,0.7s-0.4,0.2-0.7,0.2h-4.3c-0.3,0-0.6-0.1-0.7-0.2
		s-0.2-0.4-0.2-0.8v-4.8c0-0.4,0.1-0.6,0.2-0.8c0.1-0.1,0.4-0.2,0.7-0.2h4.3c0.3,0,0.6,0.1,0.7,0.2c0.1,0.1,0.2,0.4,0.2,0.7V192.7z
		 M31.7,192.6V188c0-0.3-0.1-0.5-0.4-0.5h-4c-0.3,0-0.4,0.2-0.4,0.5v4.6c0,0.1,0,0.3,0.1,0.4c0.1,0.1,0.2,0.1,0.3,0.1h4
		C31.5,193.1,31.7,193,31.7,192.6z M30.5,194.2c0.1,0,0.2,0.1,0.4,0.3c0.4,0.6,0.8,1.5,1.4,2.6c0.5,1.1,0.8,1.8,0.8,2
		c0,0.1,0,0.2-0.1,0.2c-0.1,0-0.1,0.1-0.2,0.1c-0.1,0-0.2-0.1-0.3-0.3c-0.7-1.6-1.3-3-2-4.2c-0.1-0.1-0.1-0.2-0.1-0.3
		c0-0.1,0-0.1,0-0.2c0-0.1,0.1-0.1,0.1-0.1C30.4,194.2,30.4,194.2,30.5,194.2z"/>
	<path id="XMLID_82_" d="M35.6,191.1c-0.1,0.2-0.2,0.4-0.3,0.7s-0.3,0.5-0.4,0.7c-0.3,0.5-0.4,0.8-0.5,0.8c-0.1,0.1-0.1,0.1-0.2,0.1
		c0,0-0.1,0-0.1,0s-0.1,0-0.1-0.1c0-0.1,0-0.1,0-0.2c0-0.1,0.1-0.3,0.3-0.5c0.3-0.5,0.6-1,0.9-1.4c0.3-0.5,0.5-0.9,0.7-1.4
		c0.2-0.5,0.4-0.9,0.5-1.4c0.1-0.5,0.3-1,0.4-1.5c0.1-0.4,0.2-0.6,0.4-0.6c0.2,0,0.3,0.2,0.3,0.5c0,0.1-0.1,0.6-0.3,1.2
		c-0.1,0.3-0.2,0.6-0.3,0.9c-0.1,0.3-0.2,0.6-0.3,0.8v9.3c0,0.2-0.1,0.3-0.3,0.3c-0.2,0-0.3-0.1-0.3-0.3V191.1z M43.6,198.4h3.2
		c0.2,0,0.3,0.1,0.3,0.3c0,0.2-0.1,0.3-0.3,0.3h-9.7c-0.2,0-0.3-0.1-0.3-0.3c0-0.2,0.1-0.3,0.3-0.3H43c0.4-1.2,0.7-2.5,1.1-3.9
		s0.6-2.9,0.8-4.5c0-0.3,0.1-0.4,0.3-0.4c0.2,0,0.3,0.1,0.3,0.4c0,0.2-0.2,1.3-0.5,3.1C44.5,194.9,44.1,196.7,43.6,198.4z
		 M42.4,188.3h4.1c0.2,0,0.3,0.1,0.3,0.3c0,0.2-0.1,0.3-0.3,0.3h-8.7c-0.2,0-0.3-0.1-0.3-0.3c0-0.2,0.1-0.3,0.3-0.3h4
		c-0.2-0.6-0.3-1-0.5-1.2c-0.1-0.3-0.2-0.4-0.2-0.5c0-0.1,0-0.2,0.1-0.2c0.1-0.1,0.1-0.1,0.2-0.1c0.1,0,0.1,0,0.2,0.1
		c0.1,0.1,0.2,0.2,0.3,0.6C42,187.1,42.2,187.6,42.4,188.3z M39.2,190c0.2,0,0.3,0.1,0.3,0.4l0.3,1.8c0.1,0.6,0.2,1.1,0.3,1.7
		c0.1,0.6,0.2,1.1,0.2,1.7c0.1,0.6,0.1,1,0.1,1.4s0,0.5,0,0.7c0,0.2-0.1,0.3-0.3,0.3c-0.1,0-0.2,0-0.2-0.1s-0.1-0.2-0.1-0.3
		c-0.1-1.2-0.2-2.3-0.4-3.5c-0.2-1.1-0.4-2.3-0.6-3.4c0,0,0-0.1,0-0.1c0,0,0-0.1,0-0.1C38.9,190.1,39,190,39.2,190z"/>
	<path id="XMLID_87_" d="M50.8,190.2c0.2,0,0.4,0.1,0.6,0.2s0.2,0.3,0.2,0.6c0,0.2-0.1,0.4-0.2,0.6c-0.2,0.2-0.3,0.2-0.6,0.2
		s-0.4-0.1-0.6-0.2c-0.2-0.2-0.2-0.3-0.2-0.6c0-0.2,0.1-0.4,0.2-0.6S50.6,190.2,50.8,190.2z M50.8,195.5c0.2,0,0.4,0.1,0.6,0.2
		s0.2,0.3,0.2,0.6c0,0.2-0.1,0.4-0.2,0.6S51,197,50.8,197s-0.4-0.1-0.6-0.2s-0.2-0.3-0.2-0.6c0-0.2,0.1-0.4,0.2-0.6
		S50.6,195.5,50.8,195.5z"/>
	<path id="XMLID_90_" d="M68.6,199.5c0,0.2-0.1,0.3-0.3,0.3h-6.5c-0.1,0-0.3,0-0.3-0.1s-0.1-0.1-0.1-0.2c0-0.1,0-0.2,0.1-0.3
		s0.2-0.1,0.3-0.1h6.5C68.5,199.2,68.6,199.3,68.6,199.5z"/>
	<path id="XMLID_92_" d="M75.8,199.5c0,0.2-0.1,0.3-0.3,0.3H69c-0.1,0-0.3,0-0.3-0.1s-0.1-0.1-0.1-0.2c0-0.1,0-0.2,0.1-0.3
		s0.2-0.1,0.3-0.1h6.5C75.7,199.2,75.8,199.3,75.8,199.5z"/>
	<path id="XMLID_94_" d="M83.1,199.5c0,0.2-0.1,0.3-0.3,0.3h-6.5c-0.1,0-0.3,0-0.3-0.1s-0.1-0.1-0.1-0.2c0-0.1,0-0.2,0.1-0.3
		s0.2-0.1,0.3-0.1h6.5C83,199.2,83.1,199.3,83.1,199.5z"/>
	<path id="XMLID_96_" d="M90.3,199.5c0,0.2-0.1,0.3-0.3,0.3h-6.5c-0.1,0-0.3,0-0.3-0.1s-0.1-0.1-0.1-0.2c0-0.1,0-0.2,0.1-0.3
		s0.2-0.1,0.3-0.1H90C90.2,199.2,90.3,199.3,90.3,199.5z"/>
	<path id="XMLID_98_" d="M97.5,199.5c0,0.2-0.1,0.3-0.3,0.3h-6.5c-0.1,0-0.3,0-0.3-0.1s-0.1-0.1-0.1-0.2c0-0.1,0-0.2,0.1-0.3
		s0.2-0.1,0.3-0.1h6.5C97.4,199.2,97.5,199.3,97.5,199.5z"/>
	<path id="XMLID_100_" d="M104.8,199.5c0,0.2-0.1,0.3-0.3,0.3h-6.5c-0.1,0-0.3,0-0.3-0.1s-0.1-0.1-0.1-0.2c0-0.1,0-0.2,0.1-0.3
		s0.2-0.1,0.3-0.1h6.5C104.7,199.2,104.8,199.3,104.8,199.5z"/>
	<path id="XMLID_102_" d="M112,199.5c0,0.2-0.1,0.3-0.3,0.3h-6.5c-0.1,0-0.3,0-0.3-0.1s-0.1-0.1-0.1-0.2c0-0.1,0-0.2,0.1-0.3
		s0.2-0.1,0.3-0.1h6.5C111.9,199.2,112,199.3,112,199.5z"/>
	<path id="XMLID_104_" d="M119.2,199.5c0,0.2-0.1,0.3-0.3,0.3h-6.5c-0.1,0-0.3,0-0.3-0.1s-0.1-0.1-0.1-0.2c0-0.1,0-0.2,0.1-0.3
		s0.2-0.1,0.3-0.1h6.5C119.1,199.2,119.2,199.3,119.2,199.5z"/>
	<path id="XMLID_106_" d="M126.5,199.5c0,0.2-0.1,0.3-0.3,0.3h-6.5c-0.1,0-0.3,0-0.3-0.1s-0.1-0.1-0.1-0.2c0-0.1,0-0.2,0.1-0.3
		s0.2-0.1,0.3-0.1h6.5C126.4,199.2,126.5,199.3,126.5,199.5z"/>
	<path id="XMLID_108_" d="M133.7,199.5c0,0.2-0.1,0.3-0.3,0.3h-6.5c-0.1,0-0.3,0-0.3-0.1s-0.1-0.1-0.1-0.2c0-0.1,0-0.2,0.1-0.3
		s0.2-0.1,0.3-0.1h6.5C133.6,199.2,133.7,199.3,133.7,199.5z"/>
</g>
<g id="XMLID_33_">
	<path id="XMLID_39_" d="M24.7,213.6h2.4c0.2,0,0.3,0.1,0.3,0.3c0,0.2-0.1,0.3-0.3,0.3H20c-0.2,0-0.3-0.1-0.3-0.3
		c0-0.2,0.1-0.3,0.3-0.3h4.2c0-0.1,0.1-0.2,0.2-0.4c0.4-0.7,0.8-1.5,1.2-2.5c0.1-0.3,0.2-0.4,0.3-0.4c0.2,0,0.2,0.1,0.2,0.2
		c0,0.3-0.2,0.8-0.6,1.6C25.1,212.9,24.8,213.4,24.7,213.6z M24.2,209.3h2.7c0.2,0,0.3,0.1,0.3,0.3c0,0.2-0.1,0.3-0.3,0.3h-6.7
		c-0.2,0-0.3-0.1-0.3-0.3c0-0.2,0.1-0.3,0.3-0.3h3.4c-0.2-0.4-0.3-0.6-0.4-0.8c-0.1-0.1-0.1-0.2-0.1-0.3c0-0.1,0-0.1,0.1-0.2
		c0.1,0,0.1-0.1,0.2-0.1C23.5,208,23.8,208.4,24.2,209.3z M26.5,219.5c0,0.5-0.1,0.8-0.2,0.9c-0.1,0.1-0.4,0.2-0.8,0.2h-3.8
		c-0.2,0-0.4,0-0.5,0c-0.1,0-0.2-0.1-0.3-0.2s-0.1-0.2-0.2-0.3c0-0.1,0-0.3,0-0.6v-2.9c0-0.5,0.1-0.8,0.2-0.9
		c0.1-0.1,0.4-0.2,0.8-0.2h3.8c0.4,0,0.7,0.1,0.8,0.2c0.2,0.1,0.2,0.4,0.2,0.9V219.5z M21.4,210.4c0.1,0,0.2,0,0.2,0.1
		c0,0.1,0.1,0.3,0.3,0.7l0.4,1.1c0.1,0.4,0.2,0.6,0.2,0.7c0,0.2-0.1,0.3-0.3,0.3c-0.2,0-0.3-0.1-0.4-0.4c-0.1-0.3-0.2-0.7-0.3-1
		c-0.1-0.3-0.3-0.6-0.4-0.9c-0.1-0.1-0.1-0.2-0.1-0.2s0-0.1,0-0.2s0.1-0.1,0.1-0.1C21.3,210.4,21.4,210.4,21.4,210.4z M25.9,219.5
		v-2.9c0-0.1,0-0.3-0.1-0.4c-0.1-0.1-0.2-0.1-0.3-0.1h-3.8c-0.1,0-0.2,0-0.3,0.1c-0.1,0.1-0.1,0.2-0.1,0.4v2.9c0,0.2,0,0.3,0.1,0.4
		c0.1,0.1,0.2,0.1,0.3,0.1h3.8c0.1,0,0.3,0,0.3-0.1C25.8,219.8,25.9,219.7,25.9,219.5z M30.9,212.7c-0.1,0.4-0.2,0.6-0.2,0.8
		c0,0.2,0.1,0.3,0.2,0.5c0.5,0.5,1,1.1,1.3,1.7c0.3,0.7,0.5,1.3,0.5,1.8c0,0.5-0.1,1-0.4,1.5c-0.3,0.5-0.7,0.7-1.3,0.7
		c-0.3,0-0.8-0.1-1.3-0.2c-0.2-0.1-0.4-0.1-0.6-0.2c-0.1-0.1-0.2-0.1-0.3-0.1c-0.1-0.1-0.2-0.1-0.2-0.2c0-0.2,0.1-0.3,0.2-0.3
		s0.2,0,0.3,0c0.7,0.3,1.3,0.5,1.7,0.5c0.4,0,0.7-0.2,0.8-0.5c0.2-0.4,0.3-0.8,0.3-1.2s-0.1-0.9-0.4-1.5c-0.3-0.6-0.7-1.1-1.2-1.6
		c-0.2-0.1-0.3-0.3-0.4-0.4c-0.1-0.1-0.1-0.2-0.1-0.4c0-0.2,0.1-0.4,0.3-0.9l1.2-2.8c0-0.1,0.1-0.2,0.1-0.3c0-0.1,0-0.2,0-0.2
		c0-0.1-0.1-0.1-0.1-0.2c-0.1,0-0.2-0.1-0.3-0.1h-2.2c-0.3,0-0.5,0.2-0.5,0.6v11.2c0,0.2-0.1,0.3-0.3,0.3c-0.2,0-0.3-0.1-0.3-0.3
		v-11.3c0-0.4,0.1-0.6,0.2-0.8c0.1-0.2,0.4-0.2,0.7-0.2h2.8c0.2,0,0.3,0,0.4,0.1c0.1,0.1,0.2,0.2,0.2,0.3c0,0.1,0.1,0.2,0.1,0.3
		c0,0.1,0,0.2-0.1,0.2L30.9,212.7z"/>
	<path id="XMLID_46_" d="M35.4,220.7c0,0.2-0.1,0.3-0.3,0.3c-0.1,0-0.2,0-0.2-0.1c0,0-0.1-0.1-0.1-0.2v-10.2c0-0.2,0.1-0.3,0.3-0.3
		c0.2,0,0.3,0.1,0.3,0.3V220.7z M38.2,210.2c0,0,0,0.1-0.1,0.1c0,0-0.1,0.1-0.1,0.1c0,0-0.1,0-0.2,0c-0.1,0-0.2-0.1-0.3-0.2
		c-0.2-0.2-0.5-0.5-0.9-0.7s-0.7-0.6-1.2-0.9c-0.2-0.1-0.2-0.2-0.2-0.3c0-0.1,0-0.1,0.1-0.2c0-0.1,0.1-0.1,0.2-0.1s0.2,0,0.2,0.1
		c0.1,0,0.3,0.2,0.8,0.6c0.2,0.2,0.4,0.3,0.6,0.4c0.2,0.1,0.3,0.3,0.5,0.4c0.1,0.1,0.2,0.2,0.3,0.3c0.1,0.1,0.1,0.1,0.2,0.2
		C38.2,210.1,38.2,210.1,38.2,210.2C38.2,210.1,38.2,210.2,38.2,210.2z M46,219.4c0,0.5-0.1,0.9-0.4,1.2c-0.2,0.3-0.6,0.4-1,0.4
		c-0.4,0-1-0.1-1.7-0.3c-0.7-0.2-1-0.4-1-0.5c0-0.2,0.1-0.3,0.3-0.3c0.1,0,0.2,0,0.3,0.1c0.9,0.3,1.5,0.5,1.9,0.5
		c0.4,0,0.7-0.1,0.8-0.3c0.1-0.2,0.2-0.5,0.2-0.9v-9.4c0-0.2,0-0.3-0.1-0.4c-0.1-0.1-0.2-0.1-0.4-0.1h-5.7c-0.2,0-0.3-0.1-0.3-0.3
		s0.1-0.3,0.3-0.3H45c0.4,0,0.7,0.1,0.8,0.2c0.1,0.1,0.2,0.4,0.2,0.9V219.4z"/>
	<path id="XMLID_50_" d="M50.8,212c0.2,0,0.4,0.1,0.6,0.2s0.2,0.3,0.2,0.6c0,0.2-0.1,0.4-0.2,0.6c-0.2,0.2-0.3,0.2-0.6,0.2
		s-0.4-0.1-0.6-0.2c-0.2-0.2-0.2-0.3-0.2-0.6c0-0.2,0.1-0.4,0.2-0.6S50.6,212,50.8,212z M50.8,217.2c0.2,0,0.4,0.1,0.6,0.2
		s0.2,0.3,0.2,0.6c0,0.2-0.1,0.4-0.2,0.6s-0.3,0.2-0.6,0.2s-0.4-0.1-0.6-0.2S50,218.2,50,218c0-0.2,0.1-0.4,0.2-0.6
		S50.6,217.2,50.8,217.2z"/>
	<path id="XMLID_53_" d="M68.6,221.3c0,0.2-0.1,0.3-0.3,0.3h-6.5c-0.1,0-0.3,0-0.3-0.1s-0.1-0.1-0.1-0.2c0-0.1,0-0.2,0.1-0.3
		s0.2-0.1,0.3-0.1h6.5C68.5,220.9,68.6,221,68.6,221.3z"/>
	<path id="XMLID_55_" d="M75.8,221.3c0,0.2-0.1,0.3-0.3,0.3H69c-0.1,0-0.3,0-0.3-0.1s-0.1-0.1-0.1-0.2c0-0.1,0-0.2,0.1-0.3
		s0.2-0.1,0.3-0.1h6.5C75.7,220.9,75.8,221,75.8,221.3z"/>
	<path id="XMLID_57_" d="M83.1,221.3c0,0.2-0.1,0.3-0.3,0.3h-6.5c-0.1,0-0.3,0-0.3-0.1s-0.1-0.1-0.1-0.2c0-0.1,0-0.2,0.1-0.3
		s0.2-0.1,0.3-0.1h6.5C83,220.9,83.1,221,83.1,221.3z"/>
	<path id="XMLID_59_" d="M90.3,221.3c0,0.2-0.1,0.3-0.3,0.3h-6.5c-0.1,0-0.3,0-0.3-0.1s-0.1-0.1-0.1-0.2c0-0.1,0-0.2,0.1-0.3
		s0.2-0.1,0.3-0.1H90C90.2,220.9,90.3,221,90.3,221.3z"/>
	<path id="XMLID_61_" d="M97.5,221.3c0,0.2-0.1,0.3-0.3,0.3h-6.5c-0.1,0-0.3,0-0.3-0.1s-0.1-0.1-0.1-0.2c0-0.1,0-0.2,0.1-0.3
		s0.2-0.1,0.3-0.1h6.5C97.4,220.9,97.5,221,97.5,221.3z"/>
	<path id="XMLID_63_" d="M104.8,221.3c0,0.2-0.1,0.3-0.3,0.3h-6.5c-0.1,0-0.3,0-0.3-0.1s-0.1-0.1-0.1-0.2c0-0.1,0-0.2,0.1-0.3
		s0.2-0.1,0.3-0.1h6.5C104.7,220.9,104.8,221,104.8,221.3z"/>
	<path id="XMLID_65_" d="M112,221.3c0,0.2-0.1,0.3-0.3,0.3h-6.5c-0.1,0-0.3,0-0.3-0.1s-0.1-0.1-0.1-0.2c0-0.1,0-0.2,0.1-0.3
		s0.2-0.1,0.3-0.1h6.5C111.9,220.9,112,221,112,221.3z"/>
	<path id="XMLID_67_" d="M119.2,221.3c0,0.2-0.1,0.3-0.3,0.3h-6.5c-0.1,0-0.3,0-0.3-0.1s-0.1-0.1-0.1-0.2c0-0.1,0-0.2,0.1-0.3
		s0.2-0.1,0.3-0.1h6.5C119.1,220.9,119.2,221,119.2,221.3z"/>
	<path id="XMLID_69_" d="M126.5,221.3c0,0.2-0.1,0.3-0.3,0.3h-6.5c-0.1,0-0.3,0-0.3-0.1s-0.1-0.1-0.1-0.2c0-0.1,0-0.2,0.1-0.3
		s0.2-0.1,0.3-0.1h6.5C126.4,220.9,126.5,221,126.5,221.3z"/>
	<path id="XMLID_71_" d="M133.7,221.3c0,0.2-0.1,0.3-0.3,0.3h-6.5c-0.1,0-0.3,0-0.3-0.1s-0.1-0.1-0.1-0.2c0-0.1,0-0.2,0.1-0.3
		s0.2-0.1,0.3-0.1h6.5C133.6,220.9,133.7,221,133.7,221.3z"/>
</g>
<g id="XMLID_38_">
</g>
<g id="XMLID_164_">
</g>
<g id="XMLID_165_">
</g>
<g id="XMLID_166_">
</g>
<g id="XMLID_167_">
</g>
<g id="XMLID_168_">
</g>
</svg>
