<?xml version="1.0" encoding="utf-8"?>
<!-- Generator: Adobe Illustrator 19.0.0, SVG Export Plug-In . SVG Version: 6.00 Build 0)  -->
<svg version="1.1" id="图层_1" xmlns="http://www.w3.org/2000/svg" xmlns:xlink="http://www.w3.org/1999/xlink" x="0px" y="0px"
	 viewBox="0 0 450 351.4" enable-background="new 0 0 450 351.4" xml:space="preserve">
<path id="XMLID_3_" opacity="0.1" fill="#686767" d="M116.1,315.2c6.5,5.9,14.5,10.1,23.2,11.1c9.5,1.4,24.8-1.3,36.6-14.6
	c5.4-6.8,10-15.6,10.1-26.5c0.1-10.7-5.1-22-15-28.4c-9-7-25.1-7.4-34.7,2.4c-10.2,8.5-11.8,28.7,1.4,36.5
	c5.7,4.2,14.8,4.2,20.5-0.8c5.9-4.7,8.2-14.5,3.1-20.7c-4.4-6.7-16.1-6.1-19,2.1c-4.3,8.4,9.5,16.5,13,6.8
	c-3.5,8.7-15.4,1.8-12.3-5.2c1.9-6.8,10.9-8.3,14.9-3.5c4.4,4.4,3.5,11.6-0.4,15.7c-4,4-10.1,5.1-14.6,2.4
	c-9.9-4.9-10.2-18.6-3.2-25.1c6.6-7.1,16.5-7.1,23-2.6c14.3,10,10.8,28,2.4,35.9c-8.4,8.2-17.9,9.2-23.5,8.4
	c-11.9-1.5-24.7-12.1-29.3-24.3c-0.3-10.1,0.4-21.1,2.6-32.8c6-32.8,30.3-69.3,73.8-89.6c17.5-9.5,37.9-16.5,59.2-24.6
	c-4,3.8-8.1,8.2-12,13.4c-24,29.4-30.4,84-8.1,119.6c9.6,16.4,31.6,37.5,65.2,40.4c0.1,0.1,0.2,0.1,0.2,0.2
	c11.5,7.7,21,23.9,20.4,37.3c0,0.9,0,1.8-0.1,2.9H331c0.1-1.1,0.1-2.1,0-3.1c0.3-14.6-7-28.6-16.8-38.1c13.3-2.1,27.1-7.4,39.2-17.7
	c16.7-14.3,28.2-38.2,25.9-63.6c-1-24.8-20.1-52-48.7-55c-13.7-1.7-28.6,1.7-40.3,11.4c-11.4,9.7-18.2,25.6-16.4,41.1
	c0.9,15.5,12.6,30.6,28.4,33.6c15.4,3.5,34.3-6.1,37.6-23.6c1.6-8.3-0.1-17.4-5.8-23.8c-5.7-6.2-15.1-8.7-23.2-5.6
	c-8.3,2.6-14,11.9-12.5,20.7c0.8,9.1,11,15.4,19.2,11.6c-7.8,3.3-17.1-2.1-18.3-10.3c-1.8-7.8,2.3-16.6,9.4-19.8
	c14.8-7.8,31.5,6.5,29.2,21.9c-0.7,15.5-15.2,26.4-29.1,25.6c-13.8-0.6-26-10.9-28.6-24.2c-3.2-13.1,0.7-27.4,9.2-36.9
	c8.4-9.7,21.1-14,33-13.8c24.5,0.3,43.1,20.5,45.1,42.3c3.2,21.7-5.8,42.8-19.6,55.1c-13.7,12.5-31.7,16.7-46.8,16.5
	c-31.3-1.2-50.5-20.9-58.6-34.6c-18.1-28.7-15.5-75.3,3.4-103.1c9.3-14.9,20.5-24.7,28.9-31.1c20.9-9.1,41.9-20.5,61.4-37.2
	c9.3-8,18.3-17,26.5-26.9c-1.9,21.9,9.3,48.2,29.1,59.4c10.8,6.7,30.2,12.5,52,4c1.8-0.7,3.5-1.5,5.3-2.5v-17.3
	c-3,1.9-6.1,3.4-9.1,4.6c-17.1,6-31.7,0.8-39.3-3.9c-16.5-9.4-27.5-33.7-23.9-53c0.7-5.1,2-9.7,3.5-13.7
	c9.5-12.5,15.9-26.8,19.3-40.4l-12.9,0c-10.8,30.3-41.6,58.5-72.6,63.1c-15.9,2.9-42.2,1.1-64.1-20C239.9,32.8,230.5,17.8,229,0
	l-13.4,0c0.4,10.7,3,20.6,7,29.4c-0.1,0-0.1,0-0.2-0.1c-15.5-6.3-39.2-0.4-51.8,14.9c0.2-1.3,0.1-2.5-0.1-3.6
	c-0.6-5.2-4.4-10.5-9.7-12c-5.4-2-12.2,1.1-15.1,5.6c-3.1,4.6-3.6,8.7-3.6,12.7c0.1,7.8,3.5,13.5,6.8,16.4c2.9,3,7.1,4.6,11.4,5
	c-0.8,6.4-0.4,13.6,1.9,21.1c3.1,8.4,8.2,17.2,17.9,22.9c9.4,5.7,22.6,6.3,33.5-0.3c11-5.5,18.8-20.6,15.4-34.2
	c-1.8-13.6-19-26-33.1-16.8c-6.7,3.6-11,12.2-9.6,20c1,7.7,8.2,15.2,16.7,13.3c8.4-1.2,13.5-12.4,7.9-19.2
	c-5.3-8.5-19.6,1.1-12.8,9.1c-5.8-7.5,6.3-15.9,11-9.2c4.9,5.3,1.7,14.5-4.6,16.2c-6.3,2.3-12.4-2.5-13.8-8.3
	c-1.5-5.8,0.7-12.4,5.4-15.5c9.6-7.5,22.2-0.7,24.2,9.4c2.8,9.9-2.1,19.9-9.7,24.1c-7.5,4.5-16.3,4-22.2,0.3
	c-5.9-3.6-9.5-10-11.3-16c-2.9-12.3,1-22.4,4.8-27.6c7.2-11.4,24.2-18.9,37.5-16.5c4.6,0.6,8.7,1.9,12.1,3.4c2,2.7,4,5.3,6.1,7.7
	c25.8,28.3,59.7,31.5,79.2,27.9c13.9-2.5,27.7-8.5,39.9-17.1c-5.7,6.2-11.8,12-18,17.4c-45.5,40.2-102.5,48-148.1,68.6
	c-23.1,9.9-44.3,23.1-59.8,40.5c-1.4,1.5-2.7,3.1-4,4.7c-3.3,1.8-6.9,3.5-10.9,4.9c-24.1,9.8-58.8,3.3-76.7-15.8
	c-8.6-8.8-19.1-26.2-15.7-50c1.8-11.4,7.2-24.5,17.6-33.5c10.3-9,26.3-13.8,41.8-9.3c15.6,3.9,29.3,18.9,28.1,38.2
	c0.1,18.8-18.8,38.4-39.6,31.3c-10.1-2.6-17.6-12.1-17.8-23.2c-0.2-11,8.1-22.8,19.9-22.8c11.6-1.1,22.4,12.5,15.4,24.1
	c-2.8,5.4-9.7,8.3-15.5,6c-6-1.8-8.8-9.9-5.2-15.5c-3.6,5.1-1.7,13,3.9,15.6c5.3,3,12.7,1.5,16.5-3.5c8.9-10.3,1.5-27.4-11.3-28.9
	c-12.5-3-24.9,7.4-27.3,19.8c-2.6,12.2,3.1,26,14,31.3c21.3,13.8,50.5-4.1,54-27.2c5.9-22.8-7.8-46.5-26.8-54
	c-18.6-8.7-40.2-5.5-55.3,5C20.5,97.7,12.3,114.1,8.8,129c-6.3,28.6,4.7,51.7,15.4,64c-8.7,2.5-17.5,9.5-20.9,18.1
	c-2.7,5.1-5,14.8-1.6,24.9c3.1,9.8,11.7,21.1,26.8,22.5c15.4,2.2,30.8-18.4,21-33.8c-3.8-7-14-12.4-22.1-6.7
	c-8.2,5.2-7.1,18.7,1.5,22.1c-7.6-4.1-7.5-15.3-1.1-19.2c6.1-4.4,13.5-0.2,16.2,5.2c6.5,11.9-5.2,23.5-13.1,21.5
	c-8.2-1.4-13.5-9.6-14.3-15.5c-1.2-6.3,0.5-10.6,2-13.6c2.5-6.2,8.4-11.9,15-14c0.7-0.3,1.4-0.5,2.1-0.7
	c22.1,16.3,54.5,19.4,77.9,10.1c-5.8,10.6-10,21.5-12.9,32.1c-9.1,38.5-2.6,69.4,2.4,89.1c1.4,5.4,3.1,10.9,5,16.4h18.2
	c-2.7-7.1-5-14.3-6.8-21.3C118.4,325.6,117.2,320.7,116.1,315.2 M293.7,0l-1.7,0C292.6,0,292.4,9,293.7,0 M311.8,19.7
	c8.7-4.1,15.9-11.2,20.4-19.7l-7,0c-2.5,4.3-5.9,8.2-10,11.3c-10.6,8.7-26.2,9.8-37.8,1.8c-4.6-3.1-8.3-7.7-10.5-13l-3.8,0
	c1.4,4.5,3.8,8.8,7,12.1C280.5,23.4,298.2,26.8,311.8,19.7 M406.3,56.5c-4.9,8.6-4.4,19.9,1,28.3c5,8.5,15.9,13.3,25.7,10.9
	c7-1.3,13.9-7,16.2-14.2c0.9-2.8,1.1-5.9,0.3-9c-0.1-0.4-0.2-0.8-0.3-1.2c-2.7-10.2-16.4-15.4-24.6-7.6c-4.4,3.4-5.5,10.5-2.1,15
	c3.2,4.5,10.2,5.4,14.3,1.4c-3.9,3.6-10.2,2.8-13.2-1.1c-3.2-3.7-2.8-9.9,0.6-13.2c6.8-7.4,19.2-4.1,22,4.6
	c3.6,8.6-2.6,17.8-10.4,20.3c-7.8,2.7-16.8,0.4-21.5-5.8c-11.1-12.7-2.3-31.9,11.6-35.7c8.1-3,16.6-2.1,23.4,1.3V39.8
	c-6.8-2.1-14.3-2.3-21.5,0C419.3,42.4,411.1,47.7,406.3,56.5"/>
</svg>
