<?xml version="1.0" encoding="utf-8"?>
<!-- Generator: Adobe Illustrator 19.0.0, SVG Export Plug-In . SVG Version: 6.00 Build 0)  -->
<svg version="1.1" id="图层_1" xmlns="http://www.w3.org/2000/svg" xmlns:xlink="http://www.w3.org/1999/xlink" x="0px" y="0px"
	 viewBox="0 0 450 337.9" enable-background="new 0 0 450 337.9" xml:space="preserve">
<path id="XMLID_88_" fill="#494949" d="M222.1,52.8c0,0-28.9,2.9-32-21.5c-1.2-18.9,18.9-23.2,18.9-23.2s5.4-0.6,0.6-8
	c3.4-0.8,33.5,2.9,42.3,23.5c0,0,8.6,14.9-15.7,34.3c-13.3,13-11.7,20-11.7,20s-5.2-12.9,4.6-24.9c9.7-12,14.4-17.1,7.6-28.8
	c-5.7-9.5-16.8-10.6-16.8-10.6s-4.3,6.6-11.1,6.3C201.7,19.6,189.7,43.3,222.1,52.8"/>
<path id="XMLID_87_" fill="#494949" d="M240,108.5c0,0,21.8-19.2,38.6-1.3c12,14.7-1.8,29.8-1.8,29.8s-4.1,3.6,4.2,6.8
	c-2.3,2.7-28.9,17.2-48.1,5.7c0,0-15.7-7.1-7.3-37.1c3.2-18.3-2.5-21.4-2.5-21.4s12,5.8,11.1,21.2c-0.9,15.4-1.8,22.3,10.6,27.9
	c10.1,4.4,19.9-1.2,19.9-1.2s-0.3-7.9,5.4-11.6C275.9,123.6,271.8,97.3,240,108.5"/>
<path id="XMLID_86_" fill="#494949" d="M201.4,106.7c0,0,24.7,15.3,12.4,36.5c-10.6,15.7-29.1,6.9-29.1,6.9s-4.7-2.9-5.3,6
	c-3.2-1.5-24.8-22.7-19.3-44.4c0,0,2.2-17,33.4-17.7c18.4-2.2,19.8-8.6,19.8-8.6s-2,13.2-17.1,16.8c-15,3.6-21.8,4.8-23.6,18.2
	c-1.3,11,6.9,18.7,6.9,18.7s7.4-2.6,12.7,1.8C197.4,145.4,221.4,133.9,201.4,106.7"/>
<path id="XMLID_85_" fill="#494949" d="M190.6,72.5c0,0-4.9,26.3-29.8,21.8c-19-4.6-17.9-23.6-17.9-23.6s0.9-5-7.8-2.9
	c0.1-3.3,11.7-28.6,34.5-30.3c0,0,17-3.1,29.8,24.1c9.3,15.6,16.7,16.3,16.7,16.3s-14.1,0.7-23.4-11.5c-9.3-12.2-13-17.8-26.5-15.4
	c-10.9,2.1-15,11.6-15,11.6s5.4,5.7,3.2,11.7C152.3,80.5,172.6,98.2,190.6,72.5"/>
<path id="XMLID_84_" fill="#494949" d="M251.5,74.5c0,0-9.7-24.3,13.1-35.4c18.1-7.4,28.3,8.5,28.3,8.5s2.2,4.5,8-2.2
	c1.8,2.7,7.4,30-10.1,44.8c0,0-11.9,12.5-38.3-2c-16.7-7.1-23.1-3.4-23.1-3.4s11-8.9,25.7-4.5c14.7,4.4,21,6.7,30.5-3.2
	c7.6-8.1,5.3-18.2,5.3-18.2s-7.7-1.5-9.5-7.6C279.6,45.3,250.9,43.2,251.5,74.5"/>
<path id="XMLID_83_" fill="#494949" d="M132.2,70.2c0,0-2.3,44.1,21.8,66.7c-4-12.9-3.4-22.3-3.4-22.3S138.2,100.8,132.2,70.2"/>
<path id="XMLID_82_" fill="#494949" d="M203.9,0.7c0,0-43.2,9.2-58.8,38.3c11.4-7.2,20.7-9.1,20.7-9.1S175.8,14.4,203.9,0.7"/>
<path id="XMLID_81_" fill="#494949" d="M301.3,40.7c0,0-26-35.6-58.9-38c11.2,7.5,16.7,15.2,16.7,15.2S277.3,20.7,301.3,40.7"/>
<path id="XMLID_80_" fill="#494949" d="M284.9,141.8c0,0,30-32.4,26-65.1C305.8,89.1,299.3,96,299.3,96S299.9,114.4,284.9,141.8"/>
<path id="XMLID_79_" fill="#494949" d="M185.3,160.7c0,0,41.5,15,70.1-1.4c-13.5,0.1-22.4-3.2-22.4-3.2S216.3,163.9,185.3,160.7"/>
<path id="XMLID_78_" fill="#494949" d="M0,213.9c0,0,4.6,1.1,4.6-4.6c0-5.7,3.4-20.3,20.3-16.6c12,3.2,13.2,13.7,13.2,13.7
	s-6.6-8.9-15.2-10.3c-8.6-1.4-14,6.6-14,10.6c0,4-2.3,11.8-4.6,9.4c-2.3-2.4,8,16,22.3,12c14.3-4,14-16.6,16-20.3
	c2-3.7,12-5.4,12-5.4s-8.9,6.9-10.6,14.6c-1.7,7.7-12.9,18.6-24.6,14.6C7.7,227.6,5.7,221.6,0,213.9"/>
<path id="XMLID_77_" fill="#494949" d="M395.4,213.9c0,0,4.6,1.1,4.6-4.6c0-5.7,3.4-20.3,20.3-16.6c12,3.2,13.2,13.7,13.2,13.7
	s-6.6-8.9-15.2-10.3c-8.6-1.4-14,6.6-14,10.6c0,4-2.3,11.8-4.6,9.4c-2.3-2.4,8,16,22.3,12c14.3-4,14-16.6,16-20.3
	c2-3.7,12-5.4,12-5.4s-8.9,6.9-10.6,14.6c-1.7,7.7-12.9,18.6-24.6,14.6C403.1,227.6,401.1,221.6,395.4,213.9"/>
<polygon id="XMLID_76_" fill="#494949" points="95.3,195 71,195 65.5,195 56.7,195 56.7,197 65.5,197 65.5,228.2 71,228.2 71,197 
	95.3,197 "/>
<path id="XMLID_73_" fill="#494949" d="M119.6,195h-8.3l-12.9,33.2h6.4v-2H125l1.4,2h5.7L119.6,195z M107,223.3l8.3-23.5l9.2,23.5
	H107z"/>
<path id="XMLID_70_" fill="#494949" d="M315.6,195h-8.3l-12.9,33.2h6.4v-2H321l1.4,2h5.7L315.6,195z M303,223.3l8.3-23.5l9.2,23.5
	H303z"/>
<path id="XMLID_69_" fill="#494949" d="M145.7,228.2v-25.8c0,0,0.3-7.5,6.9-7.5h26.6c0,0,5.7,1.7,6.1,6.9c0.4,5.1,0,26.3,0,26.3h-7
	v-29.8H152v29.8H145.7z"/>
<polygon id="XMLID_68_" fill="#494949" points="194,195 213.2,220.2 213.2,228.2 218.6,228.2 218.6,219.9 236.1,195 230.1,195 
	215.1,216.2 199.2,195 "/>
<polygon id="XMLID_67_" fill="#494949" points="242.7,195 242.7,228.2 280.7,228.2 280.7,195 275.3,195 275,226.2 248.4,226.2 
	248.7,195 "/>
<polygon id="XMLID_66_" fill="#494949" points="347.1,228.2 341.1,228.2 341.1,195 347.1,195 368.9,228.2 365.7,228.2 347.1,200.1 
	"/>
<rect id="XMLID_65_" x="373.4" y="195" fill="#494949" width="6.3" height="33.2"/>
<path id="XMLID_62_" fill-rule="evenodd" clip-rule="evenodd" fill="#494949" d="M70.7,284.3c0.5-7-0.4,3.4-2.9,7.8
	c-2.5,4.4-5.1,4.7-8.8,3.7c-3.7-0.9-7.2-5-2.4-7.4c4.9-2.5,7.9,1.1,9.2-2.3c1.2-3.4-0.7-6.6-3.6-7.4c-3-0.9-0.6-1.7,0.9-4.5
	c1.4-2.8-1.7-4.8-4-5.2c-2.3-0.4-4.8,1.4-4-3c0.8-4.5,2.9-2.8,3-5.1c0.2-2.3-1.9-4.5-3.8-3.4c-1.9,1.1-1,7.7-2,9.2
	c-1,1.4-5.8,6.1-6.3,6.3c-0.5,0.2-0.3-4.8,0.7-7.3c1-2.6-6.3-2.1-6.3,1.7c0,3.8,4.1,14.5-3.7,16c-1.5-1.1,3-6.1,3-6.1
	s-2.1-4.8-5.2-2.9c-3.2,1.9-2.4,7.1-5.4,6.7c-3.1-0.4,2.7-8,3-8.9c0.3-0.9,0.4-2.1,1.9-3.4c1.5-1.3-7.5-1.3-7.5-1.3s0.2-4.3,1.9-5.5
	c1.7-1.2,2.6-7.4,1.8-10.4c-0.8-3-3.2-2.8-4.5-1.7c-1.3,1-3,7-2.5,9.8c0.6,2.8,0.8,1.5,1.2,3.1c0.5,1.6,1.1,3.4-0.1,5.4
	c-1.2,2-9.8,7.3-12.6,7.1c-2.8-0.2,4.9,4.1,4.7,6.3c-0.2,2.2-9.2,10-12.5,9.7c-3.3-0.3,4.7,8.1,11.2,6c6.5-2.1,9.3-3.6,9.3-3.6
	s-0.6,4.1-0.6,6.6c0,2.5,0.9,4.1,3,4.1c2.2,0,5.7-1.8,5.1-3.3c-0.7-1.5-3.9-8.8-2.9-10.3c1.1-1.5,8.2,2.2,8.2,2.2s1.9,4.3,4.5,4.3
	c2.6,0,0.1-3.7,2.1-7c2-3.2,4-5.2,3.6-8.4c-0.4-3.1,0.2-8.8,3-9.7c2.8-1,1.1,14.6,1.1,14.6s-5.8,5.2-6,7c-0.2,1.7,3.3-0.6,5.1-1.9
	c1.7-1.3,0.3,6.8,7.2,6.9c6.9,0.1,13.2,1.5,14.7-4.6C73.7,287.9,70.2,291.2,70.7,284.3 M52.8,278.3c0-4.2,3-4.2,3-4.2
	s-0.1,2.9-0.2,5.7c-0.1,2.8,3.6,2.8,2.1,3c-1.5,0.2-1.9,2.3-3.4,2.7C52.8,285.9,52.8,282.5,52.8,278.3"/>
<path id="XMLID_61_" fill-rule="evenodd" clip-rule="evenodd" fill="#494949" d="M104.5,257.4c0,0,2.6,8.8,5.8,9.2
	c3.2,0.4,3.1-2.4,2.4-6C112,256.9,104.6,255.2,104.5,257.4"/>
<path id="XMLID_56_" fill-rule="evenodd" clip-rule="evenodd" fill="#494949" d="M148.6,293.6c-0.5-4.3-9-6.5-10.2-5.2
	c-1.3,1.2,2,6.3-1.8,5.6c-3.8-0.7-0.3-9.5,1.1-10.7c1.4-1.1-1.5-5.2,3.9-7.5c5.4-2.3,6.5-3.1,3.1-6.5c-3.4-3.4-6.7-4.9-8.5-3.7
	c-1.8,1.1-7.8,6.6-8.6,4.9c-0.8-1.7-2.2-3.9,1.2-5.3c3.4-1.3,4-1.4,3.9-3.7c-0.1-2.2-3.3-3-4.5-2c-0.3,0.3-0.4,0.3-0.1,0.1
	c0,0,0.1-0.1,0.1-0.1c1.2-1.1,6.2-5.6,8.6-5.9c3-0.4-2.5-2.7-4.5-1.5c-2,1.2-4.3,5.3-6.2,5c-1.9-0.4-6.7-3.5-6.7-1.9
	c0,1.6,1.6,5.5,3.7,5.4c2.1-0.1,3.3,0.2,3.3,0.2s1.5,1.8,0.8,3.1c-0.8,1.2-5.1-1.1-5.6,1.7c-0.6,2.9-2.7,4.1-2.1,7.2
	c0.6,3.1-1.1,8.4-2.1,11.4c-1,3,2.7,11.7-2.2,10.9c-4.8-0.9-7.7-3.7-6.4-6c1.2-2.3,2.8-11.3,4.3-13.5c1.6-2.2-3.1-1.8-4.3,1.5
	c-1.2,3.4-3.3,11.4-4.7,11.1c-1.4-0.3-1-6.3,1.7-8.3c2.7-2-2.5-12.4-5.4-9.2c0,0-2.5,0-1.5,6.1c1,6.1,2.2,8.6,2.2,8.6l0.8,5
	l-2.5,2.2c0,0,2.4,0.6,2.5,2.3c0.1,1.7,7.1,8.1,11.3,6.5c4.2-1.6,5.5-6.3,6.3-7c0.9-0.7,2.1,3.6,4.2,5.2c2.1,1.5,7.5-1.1,7.5-1.1
	s-0.2,3.9,2.1,3.9c2.3,0,4.9-5.3,4.9-5.3S149.1,297.9,148.6,293.6 M135.9,269.6c2.1,1-2.9,6.9-3.7,5.2
	C131.4,273,135.9,269.6,135.9,269.6 M129.9,278.7c0,0,1.1,4.9,2.2,4.9c1.1,0-3.5,2.8-3.6-1.9C128.4,277.1,129.9,278.7,129.9,278.7
	 M133.4,295c-2.1,0.7-1.8-2.5-1.8-2.5s-1.2,1.7-7.1,1.3c-5.8-0.5-4.5-6.8-5-10c-0.5-3.2,2.8-9.6,2.8-9.6c0.8-1.7,2.3-1.7,3.5,2.8
	c1.3,4.5,0.9,3.5-0.1,8.8c-0.9,5.3,2.5,3.1,5.8,4.2C135,291,135.5,294.4,133.4,295"/>
<path id="XMLID_49_" fill-rule="evenodd" clip-rule="evenodd" fill="#494949" d="M235.8,292c-0.7-5.7-10.7-2.9-12.4-3.2
	c-1.7-0.3-3.9-9.6-0.7-11.9c3.2-2.3,3.9-5.5,3.4-7.4c-0.4-1.9-7.2,3.5-7.2,1.1c0-2.4,5-3.3,4.2-6c-0.9-2.7-3.3-1.6-0.9-5.7
	c2.4-4.1,1.7-6.1-0.4-6.3c-2.1-0.1-6.9,4.9-8.4,4.9c-1.6,0-2.2,2.4-1.4,4c0.8,1.6,2.1,8.1,2.1,8.1s-0.9,6.3-4.7,5.5
	c-3.9-0.8-3-1.7-1.3-5.5c1.7-3.8,1.3-4.9-0.3-5.6c-1.6-0.7-1.6-2.7-1-4c0.6-1.3,0-4.9-5.4-5c-5.4-0.1-5.6,4.4-5,4.9
	c0.6,0.4,5,2.9,4.4,4c-0.6,1.1-3,0.9-3,0.9l-0.3-1.6h-2l-0.3,2l-1.9-1c0,0,0.9-15.2-5.4-10.6c0,0-2.7,5.3-4.7,10.3
	c-2,5-9.9,11.7-11,15.4c-1.1,3.7,2,8.6,4,7.6c2-1,2-3.3,3.1-3.7c1.1-0.4,0-4.3,1.6-4.7c1.6-0.3,1.7,0.9,1.7,0.9V297
	c0,0,2.6,2.7,4.6,1.7c2-1,1.7-3,1.9-6c0.1-3-1.4-1.3-1-6.6c0.4-5.3-0.3-9.2-0.3-9.2s-2.3,7.6-3.3,7.2c-1-0.4,0.4-11.4,3.6-12.6
	c3.2-1.2,5.7-2,5.7-2s-1.7,16.5-1.7,20.7c0,4.2,2.4,8.3,8,8.7c5.6,0.4,14.2-4.5,17-5.9c2.9-1.4,3.6,3.2,10.3,3.2
	C234.1,296.1,236.5,297.7,235.8,292 M198,295.1c-1.3-1.1-1.7-5.1-1.7-8.9c0-3.7,4.5-1.8,4.5-1.8C200.3,286.9,199.3,296.3,198,295.1
	 M199.3,276.9c0.1-2.6,2.9-3.9,2.9-3.9C203,278.1,199.2,279.5,199.3,276.9 M216.3,260.6c0-0.8,0.6-1.4,1.4-1.4
	c0.8,0,1.4,0.6,1.4,1.4v1.7c0,0.8-0.6,1.4-1.4,1.4c-0.8,0-1.4-0.6-1.4-1.4V260.6z M218.1,273.1c1.1,2.4-3.3,3.9-3.7,3.9
	C214.3,276.9,216.9,270.7,218.1,273.1 M216.2,286c-1.7-1-4.9-4-4.9-1.9c0,2.2,1.6,5.7,2.6,5.5c1-0.2-5.3,3.2-5.9,1.2
	c-0.6-2-3.6-5.3,0.7-7.9c0,0,6.2-1.6,7.2-3.4c1-1.9,3.1-0.9,3.1,2.7C219.1,285.8,217.9,287,216.2,286"/>
<path id="XMLID_46_" fill-rule="evenodd" clip-rule="evenodd" fill="#494949" d="M293.6,269.5c2.1,0.4,6.6-7.9,5.6-8.1
	c-1-0.2-4.9-6.2-6.6-7.2c-1.7-1-6.9-2.6-11.3,1.3c-4.4,3.9-0.7,4,1.7,5.2c2.4,1.1,2.1,10.2,2.1,10.2s-3.7-1.7-5.7-1.6
	c-0.1-5-2.3-9-6-10c-3.7-1-7,1.3-7,1.3c-3,2.4-0.1,6.2,1.3,9.2c1.4,3,0.1,6.4,0.1,10.3c0,3.9,3,7,3,7s-4.3,2.7-3.3,4.5
	c1.4,6.9,15.3,5.9,15.3,5.9s-0.7,4.6,2.4,6.3c8.6-4.1,12.3-19.3,11.7-25.5C296.5,272,291.5,269.1,293.6,269.5 M279.9,285.7
	c0,0-0.9-5,0.6-7.1c1.4-2.1,2.3-1.6,3.1,0c0.9,1.6,0.7,8.4,1.7,8.5C286.3,287.3,280,287.1,279.9,285.7"/>
<path id="XMLID_45_" fill-rule="evenodd" clip-rule="evenodd" fill="#494949" d="M334.8,263.9c0,0,1.6-3.3,5.2-2.4
	c3.6,0.9,4.1-0.7,2.6-4.1c-1.6-3.4-9.7-4.2-9.6-1.6C333.1,258.4,335.4,259.4,334.8,263.9"/>
<path id="XMLID_44_" fill-rule="evenodd" clip-rule="evenodd" fill="#494949" d="M331.1,269c0,0-2.6,1.6-2.3,6.7
	c0.3,5.2,1.2,4.9,1.2,4.9s2.1-4.4,5.6-4.4C339,276.1,337.1,265.2,331.1,269"/>
<path id="XMLID_43_" fill-rule="evenodd" clip-rule="evenodd" fill="#494949" d="M335.1,279.4c0,0-1.6,8.1-2.1,7.8
	c-0.5-0.3-1.3-3-2.3-2.5c-1,0.6-2.9,8.2,4.4,11c7.3,2.9,5.2-0.8,5.2-2C340.2,292.6,335.4,284,335.1,279.4"/>
<path id="XMLID_42_" fill="#494949" d="M358.6,275.7c0.6-0.2,1.1-0.6,1.1-0.6S359.2,274.6,358.6,275.7"/>
<path id="XMLID_37_" fill="#494949" d="M370.1,287.2c-4.6-1.1-4.1-7.8-4.1-7.8c0.6-0.7,6.4-4.6,4.4-5c-6.9-0.5-0.6-0.8-4.7-4.3
	c-4.1-3.4-11.7,0.7-11.7,0.7s2.7-5.7,3.9-6c1.1-0.3,1.4,0.3,3.4,1.3c2,1,7.9,1.3,5.4-4.3c-2.4-5.6-5.7-1.2-10,0.6
	c-4.3,1.7-2-1.3,0-4c2-2.7,7.5-0.9,8.2-4.1c0.7-3.3-3.9-1.5-7.2,0c-3.1,1.4-8.5-0.8-9.2-1.2c0.4,0.2,2.1,1.1,3.2,3.9
	c1.3,3.2,0.4,0.9-2.1,3.7c-2.6,2.9-1.6,10-1,6.3c0.6-3.7,5.1-1.3,5.1-1.3s-4,5.1-4.3,6.6c-0.3,1.4-2.6,5.3-1,10.6
	c1.6,5.3-0.4-0.7,0,8.2c0.4,8.9,6.4,3.4,7,5.8c0.6,2.4,1.4,2.4,4.5,1.1c3.1-1.3,4.9,4.1,6.1,3.9c1.1-0.3,1.3-6.7,0.7-8.9
	C366.1,290.7,374.7,288.3,370.1,287.2 M354.6,288.7c0,0.9-2.4,3.9-3.7-0.6c-1.1-3.8,2.3-7.4,3.4-8.4c0.1-0.2,0.2-0.3,0.3-0.3
	c0,0-0.1,0.1-0.3,0.3C353.5,281.2,354.6,287.9,354.6,288.7 M355.1,276.4c0,0.5-0.4,0.9-0.9,0.9c-0.5,0-0.9-0.4-0.9-0.9v-1.1
	c0-0.5,0.4-0.9,0.9-0.9c0.5,0,0.9,0.4,0.9,0.9V276.4z M363.7,291.1c0,0-5.3-0.4-5.6-1.9c-0.3-1.4,4.6-3.3,3.3-6.4
	c-1.3-3.2-4.7-0.2-3.7-4.5c0.3-1.3,0.6-2.2,0.9-2.7c-0.6,0.2-1.5,0-2-1.4c0,0-0.8-2.1,3.1-2.7c3.9-0.6,3.7,2.9,4,5.6
	C364,279.8,363.7,291.1,363.7,291.1"/>
<path id="XMLID_36_" fill-rule="evenodd" clip-rule="evenodd" fill="#494949" d="M413.9,253.6c0,0,2.6,6.7,7,6.2
	C425.4,259.2,420.7,247.6,413.9,253.6"/>
<path id="XMLID_35_" fill-rule="evenodd" clip-rule="evenodd" fill="#494949" d="M408.8,272.4c0,0-1.1,3.6-2.6,6.3
	c-1.4,2.7-3.3,1.8-2.6,6.3c0.7,4.5,1.3,5.2-0.2,7.6c-1.4,2.4-5.3,1.3-4.3,5.7c1,4.4,3.6,4.9,5.6,1.3c2-3.6,3.1-5.6,4-6.3
	c0.8-0.7-0.9-6,0-8.9c0.8-2.9,5.9-1.4,6.3-3.9C415.5,278.1,410.1,268.8,408.8,272.4"/>
<path id="XMLID_32_" fill-rule="evenodd" clip-rule="evenodd" fill="#494949" d="M438.1,287c-6.7-5.7-9.7,1.1-9.7-3.3
	c0-4.4-1.6-2.4-2-5.2c-0.4-2.7,2.3-3.3,3.9-5c1.6-1.7,0-4.6,0-4.6s0.2,0.9-5.4,0.7c-5.6-0.1-0.2-5.6,0-6.5c0.1-0.9-0.4-2.8-4.1,0
	c-3.7,2.8-5.4,2.5-7.6,0.8c-2.1-1.7-4.3,0-4.3,0c2.9,6.6,11.1,5.3,11.1,5.3l1.6,16.9c0,0-1.6,2.4-2.3,1c-0.7-1.4-6.7-2.4-5.3-1.7
	c1.4,0.7-0.3,5.4,1.3,11.4c1.6,5.9,5.7,1.8,5.7,1.8s0.9,2.9,5.6,3.2c4.7,0.3,6.3-4.4,7-7.3C434.2,291.6,444.8,292.7,438.1,287
	 M421.5,293.6c-1-2.4,3.1-2.4,3.1-2.4C424.5,293.4,422.5,296,421.5,293.6"/>
<polygon id="XMLID_31_" fill-rule="evenodd" clip-rule="evenodd" fill="#494949" points="150.3,314 154.2,321.9 162.9,323.2 
	156.6,329.3 158.1,337.9 150.3,333.8 142.6,337.9 144.1,329.3 137.8,323.2 146.5,321.9 "/>
<polygon id="XMLID_30_" fill-rule="evenodd" clip-rule="evenodd" fill="#494949" points="200.9,314 204.7,321.9 213.4,323.2 
	207.1,329.3 208.6,337.9 200.9,333.8 193.1,337.9 194.6,329.3 188.3,323.2 197,321.9 "/>
<polygon id="XMLID_29_" fill-rule="evenodd" clip-rule="evenodd" fill="#494949" points="251.7,314 255.6,321.9 264.3,323.2 
	258,329.3 259.5,337.9 251.7,333.8 244,337.9 245.4,329.3 239.2,323.2 247.8,321.9 "/>
<polygon id="XMLID_28_" fill-rule="evenodd" clip-rule="evenodd" fill="#494949" points="302.6,314 306.4,321.9 315.1,323.2 
	308.8,329.3 310.3,337.9 302.6,333.8 294.8,337.9 296.3,329.3 290,323.2 298.7,321.9 "/>
</svg>
