<?xml version="1.0" encoding="utf-8"?>
<!-- Generator: Adobe Illustrator 19.0.0, SVG Export Plug-In . SVG Version: 6.00 Build 0)  -->
<svg version="1.1" id="图层_1" xmlns="http://www.w3.org/2000/svg" xmlns:xlink="http://www.w3.org/1999/xlink" x="0px" y="0px"
	 width="480px" height="480px" viewBox="0 0 480 480" style="enable-background:new 0 0 480 480;" xml:space="preserve">
<style type="text/css">
	.st0{fill:#515151;}
</style>
<g id="XMLID_1_">
	<path id="XMLID_21_" class="st0" d="M186,343.9h12.8c0.4,0,0.9,0,1.4,0c0.5,0,0.9,0,1.3,0s0.7,0.1,1,0.3c0.3,0.1,0.4,0.4,0.4,0.7
		c0,0.4-0.1,0.7-0.4,0.8c-0.2,0.1-0.6,0.2-1.2,0.2h-16c-0.6,0-1-0.1-1.3-0.3c-0.2-0.2-0.4-0.7-0.4-1.4v-29c0-0.6,0.1-1.1,0.3-1.3
		s0.6-0.4,1.3-0.4h15.5c0.5,0,0.9,0.1,1.2,0.2c0.3,0.1,0.4,0.4,0.4,0.8c0,0.4-0.1,0.6-0.4,0.8c-0.3,0.1-0.6,0.2-1.2,0.2H186v12.6
		h14.4c0.6,0,1,0.1,1.2,0.2c0.2,0.1,0.3,0.4,0.3,0.9c0,0.4-0.1,0.6-0.3,0.8s-0.6,0.2-1.2,0.2H186V343.9z"/>
	<path id="XMLID_23_" class="st0" d="M219,323.3c-0.8,0.1-1.7,0.4-2.5,0.9s-1.6,1.1-2.3,1.9c-0.7,0.8-1.2,1.8-1.7,3
		c-0.4,1.2-0.6,2.7-0.6,4.3v11.5c0,0.6-0.1,1-0.2,1.2c-0.2,0.2-0.4,0.3-0.9,0.3s-0.7-0.1-0.9-0.3c-0.2-0.2-0.2-0.6-0.2-1.2v-22.4
		c0-0.6,0.1-1,0.3-1.2c0.2-0.2,0.5-0.3,0.9-0.3s0.7,0.1,0.8,0.3c0.1,0.2,0.2,0.6,0.2,1.2v4.2c0.9-1.7,2-3.1,3.2-4.2
		c1.2-1,2.7-1.6,4.6-1.6c1.1,0,1.7,0.4,1.7,1.2c0,0.3-0.1,0.4-0.2,0.6c-0.2,0.1-0.4,0.2-0.6,0.3c-0.2,0.1-0.5,0.1-0.8,0.1
		C219.5,323.2,219.2,323.2,219,323.3z"/>
	<path id="XMLID_25_" class="st0" d="M237.5,323.3c-0.8,0.1-1.7,0.4-2.5,0.9s-1.6,1.1-2.3,1.9c-0.7,0.8-1.2,1.8-1.7,3
		c-0.4,1.2-0.6,2.7-0.6,4.3v11.5c0,0.6-0.1,1-0.2,1.2c-0.2,0.2-0.4,0.3-0.9,0.3s-0.7-0.1-0.9-0.3c-0.2-0.2-0.2-0.6-0.2-1.2v-22.4
		c0-0.6,0.1-1,0.3-1.2c0.2-0.2,0.5-0.3,0.9-0.3s0.7,0.1,0.8,0.3c0.1,0.2,0.2,0.6,0.2,1.2v4.2c0.9-1.7,2-3.1,3.2-4.2
		c1.2-1,2.7-1.6,4.6-1.6c1.1,0,1.7,0.4,1.7,1.2c0,0.3-0.1,0.4-0.2,0.6c-0.2,0.1-0.4,0.2-0.6,0.3c-0.2,0.1-0.5,0.1-0.8,0.1
		C237.9,323.2,237.7,323.2,237.5,323.3z"/>
	<path id="XMLID_28_" class="st0" d="M256.4,320.5c2,0,3.6,0.4,5.1,1.1c1.4,0.8,2.6,1.8,3.6,3c0.9,1.2,1.6,2.7,2.1,4.3
		c0.4,1.6,0.7,3.3,0.7,5c0,1.7-0.2,3.4-0.7,5c-0.5,1.6-1.2,3-2.1,4.2c-0.9,1.2-2.1,2.2-3.6,2.9c-1.4,0.7-3.1,1.1-5,1.1
		s-3.6-0.4-5-1.1c-1.4-0.8-2.6-1.7-3.5-3c-0.9-1.2-1.6-2.6-2-4.2c-0.4-1.6-0.7-3.3-0.7-5c0-1.7,0.2-3.4,0.6-5c0.4-1.6,1.1-3,2-4.2
		c0.9-1.2,2.1-2.2,3.5-3C252.7,320.9,254.4,320.5,256.4,320.5z M256.4,345.2c1.4,0,2.7-0.3,3.8-0.8s2.1-1.3,2.9-2.3
		c0.8-1,1.4-2.2,1.8-3.6c0.4-1.4,0.6-2.9,0.6-4.6c0-1.7-0.2-3.2-0.6-4.6s-1-2.6-1.8-3.6c-0.8-1-1.7-1.8-2.9-2.4
		c-1.2-0.6-2.5-0.9-4-0.9c-1.5,0-2.8,0.3-3.9,0.8c-1.1,0.6-2,1.3-2.8,2.4c-0.7,1-1.3,2.2-1.6,3.6c-0.4,1.4-0.5,2.9-0.5,4.5
		s0.2,3.1,0.6,4.5c0.4,1.4,1,2.6,1.8,3.6s1.7,1.8,2.8,2.4C253.7,344.9,254.9,345.2,256.4,345.2z"/>
	<path id="XMLID_31_" class="st0" d="M282.7,323.3c-0.8,0.1-1.7,0.4-2.5,0.9s-1.6,1.1-2.3,1.9c-0.7,0.8-1.2,1.8-1.7,3
		c-0.4,1.2-0.6,2.7-0.6,4.3v11.5c0,0.6-0.1,1-0.2,1.2c-0.2,0.2-0.4,0.3-0.9,0.3s-0.7-0.1-0.9-0.3c-0.2-0.2-0.2-0.6-0.2-1.2v-22.4
		c0-0.6,0.1-1,0.3-1.2c0.2-0.2,0.5-0.3,0.9-0.3s0.7,0.1,0.8,0.3c0.1,0.2,0.2,0.6,0.2,1.2v4.2c0.9-1.7,2-3.1,3.2-4.2
		c1.2-1,2.7-1.6,4.6-1.6c1.1,0,1.7,0.4,1.7,1.2c0,0.3-0.1,0.4-0.2,0.6c-0.2,0.1-0.4,0.2-0.6,0.3c-0.2,0.1-0.5,0.1-0.8,0.1
		C283.2,323.2,282.9,323.2,282.7,323.3z"/>
	<path id="XMLID_40_" class="st0" d="M294,341.7c0.6,0,1.1,0.2,1.5,0.6c0.4,0.4,0.6,0.9,0.6,1.5c0,0.5-0.2,1-0.6,1.5
		c-0.4,0.4-0.9,0.6-1.5,0.6c-0.5,0-1-0.2-1.5-0.6c-0.4-0.4-0.6-0.9-0.6-1.5c0-0.6,0.2-1.1,0.6-1.5C293,341.9,293.5,341.7,294,341.7z
		 M294,335.6c-0.4,0-0.7-0.1-0.8-0.3c-0.1-0.2-0.2-0.6-0.2-1.2v-22.3c0-0.6,0.1-1,0.2-1.2c0.1-0.2,0.4-0.3,0.8-0.3s0.7,0.1,0.8,0.3
		c0.1,0.2,0.2,0.6,0.2,1.2V334c0,0.6-0.1,1-0.2,1.2C294.7,335.5,294.4,335.6,294,335.6z"/>
</g>
<g id="XMLID_4_">
	<path id="XMLID_3_" class="st0" d="M195.8,387c-0.7,1.2-1.2,1.8-1.3,1.9c-0.3,0.2-0.5,0.2-0.7,0.2c-0.4,0-0.6-0.1-0.8-0.4
		s-0.1-0.7,0.3-1.2c0.9-1.3,1.6-2.6,2.4-3.9c0.7-1.2,1.3-2.5,1.9-3.8s1.1-2.6,1.6-3.9s0.9-2.7,1.3-4.2c0.2-0.9,0.6-1.3,1.1-1.3
		c0.2,0,0.4,0.1,0.7,0.2s0.3,0.4,0.3,0.7c0,0.4-0.6,2.1-1.7,5.1h8.9c0.6,0,0.9,0.3,0.9,0.9c0,0.6-0.3,0.9-0.9,0.9h-9.6
		c-1,2.5-2,4.8-3.3,7h11.7c0.6,0,0.9,0.3,0.9,0.9c0,0.6-0.3,0.9-0.9,0.9h-6v8.8h7.2c0.6,0,0.9,0.3,0.9,0.9c0,0.6-0.3,0.9-0.9,0.9
		h-7.2v14.1c0,0.2,0,0.3,0.1,0.3c0.4,0,2.3-1.9,5.8-5.8c0.3-0.4,0.6-0.5,0.8-0.6c0.2,0,0.4,0,0.6,0.2c0.1,0.1,0.2,0.3,0.2,0.6
		c0,0.2,0,0.5-0.2,0.6c-0.1,0.2-0.7,1-1.9,2.3c-0.6,0.7-1.1,1.3-1.7,1.9c-0.5,0.6-1,1.1-1.6,1.5c-0.5,0.5-0.9,0.9-1.2,1.1
		c-0.3,0.3-0.6,0.5-0.8,0.6c-0.2,0.1-0.4,0.2-0.6,0.3c-0.1,0-0.3,0.1-0.4,0.1c-0.8,0-1.2-1.1-1.2-3.2v-14.1h-6.9
		c-0.6,0-0.9-0.3-0.9-0.9c0-0.6,0.3-0.9,0.9-0.9h6.9V387H195.8z M232.2,387.5h5.8c0.6,0,0.9,0.3,0.9,1c0,0.6-0.3,1-0.9,1h-26.9
		c-0.6,0-0.9-0.3-0.9-1c0-0.6,0.3-1,0.9-1h6.3v-8.6h-4.9c-0.6,0-0.9-0.3-0.9-0.9c0-0.6,0.3-0.9,0.9-0.9h4.9v-5.7
		c0-0.6,0.3-0.9,1-0.9c0.6,0,1,0.3,1,0.9v5.7h11v-5.8c0-0.6,0.3-0.9,1-0.9c0.6,0,1,0.3,1,0.9v5.8h4.4c0.6,0,0.9,0.3,0.9,0.9
		c0,0.6-0.3,0.9-0.9,0.9h-4.4V387.5z M235.8,411.1c0,1.2-0.2,2.1-0.7,2.6c-0.5,0.5-1.3,0.7-2.4,0.7h-16.1c-1.1,0-1.9-0.3-2.3-0.8
		c-0.5-0.5-0.7-1.4-0.7-2.6v-14c0-1.2,0.2-2.1,0.7-2.5c0.5-0.5,1.2-0.7,2.3-0.7h16.1c1.1,0,1.9,0.2,2.4,0.7c0.5,0.5,0.7,1.3,0.7,2.5
		V411.1z M233.9,402.5v-5.3c0-1.1-0.5-1.7-1.5-1.7h-15.5c-1,0-1.4,0.6-1.4,1.7v5.3H233.9z M233.9,410.6v-6.1h-18.4v6.1
		c0,1.2,0.5,1.7,1.4,1.7h15.5C233.3,412.3,233.9,411.8,233.9,410.6z M219.3,387.5h11v-8.6h-11V387.5z"/>
	<path id="XMLID_12_" class="st0" d="M248.9,409.6c0,0.7,0.1,1.1,0.5,1.1c0.7,0,2.4-1.6,5.2-4.9c0.3-0.4,0.6-0.6,0.8-0.7
		c0.3-0.1,0.5-0.1,0.7,0c0.2,0.1,0.3,0.2,0.5,0.4s0.2,0.3,0.2,0.5c0,0.3-0.3,0.8-0.9,1.4c-0.6,0.7-1.5,1.6-2.9,2.8
		c-1.3,1.2-2.4,2.1-3.1,2.7c-0.8,0.6-1.3,0.9-1.7,0.9c-0.5,0-0.9-0.3-1.1-1s-0.3-1.6-0.2-2.7l1.6-20.9c0-0.4,0-0.8-0.1-1
		c-0.1-0.2-0.3-0.4-0.5-0.5c-0.2-0.1-0.4-0.1-0.6-0.1c-0.2,0-0.5,0-0.7,0.1l-4.5,0.5c-0.4,0-0.6,0-0.7-0.1s-0.2-0.4-0.2-0.7
		s0-0.6,0.1-0.8c0.1-0.1,0.3-0.2,0.7-0.3l5.1-0.5c1.1-0.1,1.9,0.2,2.5,0.8s0.9,1.4,0.8,2.5L248.9,409.6z M253.3,379.9
		c0,0.2-0.1,0.4-0.2,0.6c-0.1,0.2-0.3,0.3-0.5,0.4c-0.2,0.1-0.5,0.1-0.7,0c-0.3-0.1-0.5-0.2-0.8-0.5c-1.4-1.5-2.8-2.8-4.1-4
		c-1.3-1.2-2.6-2.2-3.8-3c-0.3-0.2-0.5-0.4-0.6-0.6c-0.1-0.2-0.1-0.4,0-0.6c0.1-0.2,0.2-0.3,0.4-0.5c0.2-0.1,0.4-0.2,0.6-0.2
		c0.3,0,0.8,0.3,1.5,0.8c0.4,0.3,0.9,0.7,1.5,1.2s1.5,1.2,2.5,2.1c2,1.7,3.2,2.8,3.6,3.2C253.1,379.3,253.3,379.6,253.3,379.9z
		 M269.1,391.8h-12c-0.6,0-0.9-0.3-0.9-1c0-0.6,0.3-1,0.9-1h27.5c0.5,0,0.8,0.3,0.8,1c0,0.6-0.3,1-0.8,1h-13.5
		c-0.1,1.2-0.2,2.4-0.3,3.6c-0.1,1.2-0.3,2.3-0.5,3.4h15.9c0.5,0,0.8,0.3,0.8,1c0,0.6-0.3,1-0.8,1h-13.7c3.1,5.2,7.2,9.3,12.2,12.3
		c1.1,0.6,1.6,1.2,1.6,1.7c0,0.2-0.1,0.4-0.2,0.6c-0.2,0.2-0.4,0.3-0.7,0.3c-1,0-3.2-1.5-6.7-4.4c-3.5-2.8-6.2-6.4-8.3-10.5h-0.5
		c-1.2,4.6-3.7,8.3-7.5,11c-3.8,2.7-6.4,4.1-7.6,4.1c-0.4,0-0.6-0.1-0.8-0.2c-0.2-0.2-0.2-0.4-0.2-0.6c0-0.2,0.2-0.5,0.4-0.8
		c0.2-0.3,0.6-0.5,1.1-0.7c1.8-0.8,3.4-1.6,4.8-2.5c1.4-0.9,2.6-1.9,3.6-2.9c1-1,1.9-2.2,2.6-3.4c0.7-1.2,1.3-2.5,1.8-4h-13.2
		c-0.6,0-0.9-0.3-0.9-1c0-0.6,0.3-1,0.9-1h13.8C268.8,396.7,269.1,394.3,269.1,391.8z M282.4,382.1c0,1.2-0.3,2.1-1,2.7
		c-0.7,0.6-1.6,1-2.8,1h-17.3c-1.2,0-2.1-0.3-2.8-1c-0.6-0.6-1-1.6-1-2.7v-5.8c0-2.4,1.2-3.6,3.7-3.6h17.3c1.2,0,2.2,0.3,2.8,0.9
		c0.7,0.6,1,1.5,1,2.7V382.1z M280.5,381.9v-5.4c0-0.5-0.2-1-0.6-1.3c-0.4-0.4-0.8-0.6-1.3-0.6h-17.2c-0.5,0-0.9,0.2-1.3,0.6
		c-0.4,0.4-0.6,0.8-0.6,1.3v5.4c0,0.5,0.2,1,0.6,1.4c0.4,0.4,0.8,0.6,1.3,0.6h17.2c0.5,0,1-0.2,1.4-0.5
		C280.3,383,280.5,382.6,280.5,381.9z"/>
</g>
<g id="XMLID_6_">
	<g id="XMLID_50_">
		<path class="st0" d="M304.7,58.7c-15,20.8-30,41.5-45,62.3c-23.7,32.8-47.4,65.6-71,98.4c-5.5,7.6-11,15.2-16.5,22.8
			c-1.1,1.6,1.5,3.1,2.6,1.5c15-20.8,30-41.5,45-62.3c23.7-32.8,47.4-65.6,71-98.4c5.5-7.6,11-15.2,16.5-22.8
			C308.4,58.7,305.8,57.2,304.7,58.7L304.7,58.7z"/>
	</g>
</g>
<g id="XMLID_20_">
	<g id="XMLID_37_">
		<path class="st0" d="M307.3,242.2c-18.1-25-36.2-50.1-54.2-75.1c-2.6-3.5-5.1-7.1-7.7-10.6c-1.1-1.6-3.7-0.1-2.6,1.5
			c18.1,25,36.2,50.1,54.2,75.1c2.6,3.5,5.1,7.1,7.7,10.6C305.8,245.3,308.4,243.8,307.3,242.2L307.3,242.2z"/>
	</g>
</g>
<g id="XMLID_26_">
	<g id="XMLID_32_">
		<path class="st0" d="M236.7,144.5c-18.1-25-36.2-50.1-54.2-75.1c-2.6-3.5-5.1-7.1-7.7-10.6c-1.1-1.6-3.7-0.1-2.6,1.5
			c18.1,25,36.2,50.1,54.2,75.1c2.6,3.5,5.1,7.1,7.7,10.6C235.2,147.6,237.8,146.1,236.7,144.5L236.7,144.5z"/>
	</g>
</g>
<g id="XMLID_2_">
</g>
<g id="XMLID_44_">
</g>
<g id="XMLID_45_">
</g>
<g id="XMLID_46_">
</g>
<g id="XMLID_47_">
</g>
<g id="XMLID_48_">
</g>
<g id="XMLID_54_">
</g>
<g id="XMLID_55_">
</g>
<g id="XMLID_56_">
</g>
<g id="XMLID_57_">
</g>
<g id="XMLID_58_">
</g>
<g id="XMLID_59_">
</g>
<g id="XMLID_60_">
</g>
<g id="XMLID_61_">
</g>
<g id="XMLID_62_">
</g>
</svg>
