<?xml version="1.0" encoding="utf-8"?>
<!-- Generator: Adobe Illustrator 19.0.0, SVG Export Plug-In . SVG Version: 6.00 Build 0)  -->
<svg version="1.1" id="图层_1" xmlns="http://www.w3.org/2000/svg" xmlns:xlink="http://www.w3.org/1999/xlink" x="0px" y="0px"
	 width="480px" height="480px" viewBox="0 0 480 480" style="enable-background:new 0 0 480 480;" xml:space="preserve">
<style type="text/css">
	.st0{fill:#515151;}
</style>
<g id="XMLID_3_">
	<g id="XMLID_8_">
		<g id="XMLID_23_">
			<path id="XMLID_4_" class="st0" d="M254.4,56c-7.9,0-15.9,0-23.8,0c-7.5,0-16.6-1.3-23.9,0.7c-12.1,3.3-17.1,17.1-11.3,27.8
				c3.3,6.2,7,12.2,10.5,18.2c5.5,9.6,11.1,19.2,16.6,28.8c4.1,7.1,10.7,15.3,8.1,24c-1.8,6.3-6.6,12.4-9.8,18
				c-5.6,9.7-11.2,19.4-16.8,29c-3.6,6.2-9.2,13.3-10.8,20.5c-1.6,6.9,1,14.3,6.5,18.8c5,4.1,10.7,4.3,16.8,4.3c1.9,0,1.9-3,0-3
				c-6.6,0-12.7-0.4-17.2-6c-4.3-5.4-4.4-12.3-1.2-18.2c3.1-5.8,6.6-11.5,10-17.2c7.9-13.7,16.3-27.2,23.8-41.2
				c4.5-8.4,1.8-15.8-2.5-23.3c-4.5-7.8-9-15.5-13.4-23.3c-4.8-8.3-9.6-16.6-14.4-24.9c-4.6-7.9-9.1-16.7-1.5-24.9
				c6.8-7.3,19.6-5.1,28.6-5.1c8.6,0,17.2,0,25.7,0C256.3,59,256.3,56,254.4,56L254.4,56z"/>
		</g>
	</g>
	<g id="XMLID_15_">
		<g id="XMLID_17_">
			<path id="XMLID_5_" class="st0" d="M225.6,246.1c7.9,0,15.9,0,23.8,0c7.5,0,16.6,1.3,23.9-0.7c12.1-3.3,17.1-17.1,11.3-27.8
				c-3.3-6.2-7-12.2-10.5-18.2c-5.5-9.6-11.1-19.2-16.6-28.8c-4.1-7.1-10.7-15.3-8.1-24c1.8-6.3,6.6-12.4,9.8-18
				c5.6-9.7,11.2-19.4,16.8-29c3.6-6.2,9.2-13.3,10.8-20.5c1.6-6.9-1-14.3-6.5-18.8c-5-4.1-10.7-4.3-16.8-4.3c-1.9,0-1.9,3,0,3
				c6.6,0,12.7,0.4,17.2,6c4.3,5.4,4.4,12.3,1.2,18.2c-3.1,5.8-6.6,11.5-10,17.2c-7.9,13.7-16.3,27.2-23.8,41.2
				c-4.5,8.4-1.8,15.8,2.5,23.3c4.5,7.8,9,15.5,13.4,23.3c4.8,8.3,9.6,16.6,14.4,24.9c4.6,7.9,9.1,16.7,1.5,24.9
				c-6.8,7.3-19.6,5.1-28.6,5.1c-8.6,0-17.2,0-25.7,0C223.7,243.1,223.7,246.1,225.6,246.1L225.6,246.1z"/>
		</g>
	</g>
</g>
<g id="XMLID_1_">
	<path id="XMLID_30_" class="st0" d="M156.8,343.9c0.9,0,1.4,0.3,1.4,1s-0.5,1-1.4,1h-11.9c-1.2,0-1.9-0.5-1.9-1.5v-30.1
		c0-0.9,0.4-1.4,1.1-1.4c0.7,0,1.1,0.5,1.1,1.4v29.6H156.8z"/>
	<path id="XMLID_32_" class="st0" d="M174.3,320.5c2,0,3.6,0.4,5.1,1.1c1.4,0.8,2.6,1.8,3.6,3c0.9,1.2,1.6,2.7,2.1,4.3
		c0.4,1.6,0.7,3.3,0.7,5c0,1.7-0.2,3.4-0.7,5c-0.5,1.6-1.2,3-2.1,4.2c-0.9,1.2-2.1,2.2-3.6,2.9c-1.4,0.7-3.1,1.1-5,1.1
		s-3.6-0.4-5-1.1c-1.4-0.8-2.6-1.7-3.5-3c-0.9-1.2-1.6-2.6-2-4.2c-0.4-1.6-0.7-3.3-0.7-5c0-1.7,0.2-3.4,0.6-5c0.4-1.6,1.1-3,2-4.2
		c0.9-1.2,2.1-2.2,3.5-3C170.6,320.9,172.3,320.5,174.3,320.5z M174.3,345.2c1.4,0,2.7-0.3,3.8-0.8s2.1-1.3,2.9-2.3
		c0.8-1,1.4-2.2,1.8-3.6c0.4-1.4,0.6-2.9,0.6-4.6c0-1.7-0.2-3.2-0.6-4.6s-1-2.6-1.8-3.6c-0.8-1-1.7-1.8-2.9-2.4
		c-1.2-0.6-2.5-0.9-4-0.9c-1.5,0-2.8,0.3-3.9,0.8c-1.1,0.6-2,1.3-2.8,2.4c-0.7,1-1.3,2.2-1.6,3.6c-0.4,1.4-0.5,2.9-0.5,4.5
		s0.2,3.1,0.6,4.5c0.4,1.4,1,2.6,1.8,3.6s1.7,1.8,2.8,2.4C171.6,344.9,172.8,345.2,174.3,345.2z"/>
	<path id="XMLID_35_" class="st0" d="M209.1,340.9c-0.8,1.7-1.9,3-3.3,4.1c-1.4,1.1-3.1,1.6-5.3,1.6c-1.6,0-3-0.3-4.3-1
		c-1.3-0.6-2.4-1.5-3.4-2.7c-0.9-1.1-1.7-2.5-2.2-4.1c-0.5-1.6-0.8-3.3-0.8-5.1c0-2.2,0.3-4.2,0.9-5.9c0.6-1.7,1.4-3,2.4-4.1
		s2.1-1.9,3.5-2.4c1.3-0.5,2.7-0.8,4.2-0.7c1.1,0,2,0.2,3,0.5c0.9,0.4,1.7,0.8,2.4,1.4s1.3,1.2,1.8,2s0.9,1.5,1.2,2.3v-4.4
		c0-1,0.4-1.5,1.1-1.5c0.7,0,1.1,0.5,1.1,1.5v22.3c0,1-0.4,1.5-1.2,1.5c-0.8,0-1.2-0.5-1.2-1.5V340.9z M192.2,333.8
		c0,1.6,0.2,3.1,0.6,4.4c0.4,1.3,1,2.4,1.7,3.4c0.7,1,1.6,1.7,2.7,2.2s2.3,0.8,3.7,0.8c1.4,0,2.6-0.3,3.6-0.9c1-0.6,1.9-1.4,2.5-2.3
		c0.7-1,1.2-2.1,1.5-3.4c0.3-1.3,0.5-2.7,0.5-4.1c0-1.4-0.2-2.8-0.6-4.2c-0.4-1.3-0.9-2.5-1.6-3.6s-1.6-1.9-2.6-2.5
		c-1-0.6-2.2-0.9-3.5-0.9c-1.5,0-2.9,0.3-4,0.8c-1.1,0.6-2,1.3-2.7,2.3c-0.7,1-1.2,2.2-1.5,3.5C192.4,330.8,192.2,332.3,192.2,333.8
		z"/>
	<path id="XMLID_38_" class="st0" d="M235,340.9c-0.8,1.7-1.9,3-3.3,4.1c-1.4,1.1-3.1,1.6-5.3,1.6c-1.6,0-3-0.3-4.3-1
		c-1.3-0.6-2.4-1.5-3.4-2.7c-0.9-1.1-1.7-2.5-2.2-4.1c-0.5-1.6-0.8-3.3-0.8-5.1c0-2.2,0.3-4.2,0.9-5.9c0.6-1.7,1.4-3,2.4-4.1
		s2.1-1.9,3.5-2.4c1.3-0.5,2.7-0.8,4.2-0.7c1.1,0,2,0.2,3,0.5c0.9,0.4,1.7,0.8,2.4,1.4s1.3,1.2,1.8,2s0.9,1.5,1.2,2.3v-14.6
		c0-1,0.4-1.5,1.1-1.5c0.7,0,1.1,0.5,1.1,1.5v32.5c0,1-0.4,1.5-1.2,1.5c-0.8,0-1.2-0.5-1.2-1.5V340.9z M218.1,333.8
		c0,1.6,0.2,3.1,0.6,4.4c0.4,1.3,1,2.4,1.7,3.4c0.7,1,1.6,1.7,2.7,2.2s2.3,0.8,3.7,0.8c1.4,0,2.6-0.3,3.6-0.9c1-0.6,1.9-1.4,2.5-2.3
		c0.7-1,1.2-2.1,1.5-3.4c0.3-1.3,0.5-2.7,0.5-4.1c0-1.4-0.2-2.8-0.6-4.2c-0.4-1.3-0.9-2.5-1.6-3.6s-1.6-1.9-2.6-2.5
		c-1-0.6-2.2-0.9-3.5-0.9c-1.5,0-2.9,0.3-4,0.8c-1.1,0.6-2,1.3-2.7,2.3c-0.7,1-1.2,2.2-1.5,3.5C218.3,330.8,218.1,332.3,218.1,333.8
		z"/>
	<path id="XMLID_41_" class="st0" d="M243.9,314.8c0-0.5,0.2-1,0.6-1.4c0.4-0.4,0.8-0.6,1.4-0.6c0.5,0,1,0.2,1.4,0.6
		c0.4,0.4,0.6,0.8,0.6,1.4s-0.2,1-0.6,1.4c-0.4,0.4-0.8,0.6-1.4,0.6c-0.5,0-1-0.2-1.4-0.6C244.1,315.8,243.9,315.4,243.9,314.8z
		 M246.9,344.9c0,0.6-0.1,1-0.2,1.2s-0.4,0.3-0.9,0.3c-0.4,0-0.7-0.1-0.9-0.3c-0.2-0.2-0.2-0.6-0.2-1.2v-22.4c0-0.6,0.1-1,0.3-1.2
		c0.2-0.2,0.5-0.3,0.8-0.3c0.4,0,0.7,0.1,0.9,0.3c0.2,0.2,0.2,0.6,0.2,1.2V344.9z"/>
	<path id="XMLID_44_" class="st0" d="M272,330.2c0-1.4-0.2-2.6-0.5-3.6c-0.3-1-0.8-1.8-1.4-2.3c-0.6-0.6-1.3-1-2.1-1.2
		c-0.8-0.3-1.7-0.4-2.7-0.4c-0.9,0-1.8,0.2-2.7,0.5c-0.9,0.3-1.8,0.8-2.6,1.4c-0.8,0.6-1.5,1.4-2,2.3c-0.5,0.9-0.8,2-0.8,3.2v14.9
		c0,1-0.4,1.5-1.1,1.5s-1.1-0.5-1.1-1.5v-22.4c0-0.6,0.1-1,0.3-1.2c0.2-0.2,0.5-0.3,0.9-0.3s0.7,0.1,0.8,0.3
		c0.1,0.2,0.2,0.6,0.2,1.2v2.9c0.3-0.6,0.7-1.2,1.3-1.7c0.6-0.6,1.2-1.1,2-1.6c0.8-0.5,1.6-0.8,2.5-1.1s1.8-0.4,2.8-0.4
		c1.2,0,2.2,0.2,3.3,0.5c1,0.3,1.9,0.8,2.7,1.5c0.8,0.7,1.4,1.6,1.8,2.7c0.4,1.1,0.7,2.4,0.7,4v15.6c0,0.6-0.1,1-0.2,1.2
		c-0.2,0.2-0.4,0.3-0.9,0.3c-0.4,0-0.7-0.1-0.9-0.3c-0.2-0.2-0.2-0.6-0.2-1.2V330.2z"/>
	<path id="XMLID_46_" class="st0" d="M301.4,345.3c0,1.3-0.2,2.6-0.7,3.7c-0.5,1.1-1.2,2.1-2.2,2.9c-0.9,0.8-2.1,1.4-3.5,1.9
		c-1.4,0.4-3,0.7-4.8,0.7c-0.6,0-1.4-0.1-2.4-0.3c-1-0.2-2-0.4-3-0.8c-1-0.3-1.8-0.7-2.5-1.2c-0.7-0.5-1.1-1-1.1-1.6
		c0-0.5,0.2-0.9,0.5-1c0.3-0.2,0.8-0.1,1.3,0.3c0.4,0.4,0.8,0.7,1.4,1c0.6,0.3,1.2,0.6,1.9,0.8c0.7,0.2,1.4,0.4,2.1,0.5
		s1.4,0.2,2.1,0.2c1.2,0,2.4-0.2,3.5-0.5c1.1-0.3,2-0.8,2.7-1.3c0.8-0.6,1.4-1.3,1.8-2.2c0.4-0.9,0.6-1.9,0.6-3v-3.9
		c-0.8,1.7-2,2.9-3.6,3.7s-3.4,1.2-5.6,1.2c-1.4,0-2.8-0.3-4.1-0.9c-1.3-0.6-2.4-1.5-3.3-2.5s-1.6-2.4-2.2-3.9
		c-0.5-1.5-0.8-3.2-0.8-5.1c0-2.2,0.3-4.2,1-5.8c0.6-1.6,1.5-3,2.5-4.1c1-1.1,2.2-1.9,3.5-2.4c1.3-0.5,2.6-0.8,4-0.7
		c2.2,0.1,4,0.6,5.5,1.7c1.5,1.1,2.5,2.4,3.1,4v-3.9c0-1,0.4-1.5,1.1-1.5c0.7,0,1.1,0.5,1.1,1.5V345.3z M281.9,333.7
		c0,1.6,0.2,3,0.6,4.3c0.4,1.3,1,2.4,1.8,3.3c0.8,0.9,1.7,1.6,2.7,2.1c1,0.5,2.1,0.7,3.4,0.7c2.8,0,4.9-0.8,6.5-2.5
		c1.5-1.6,2.3-4.3,2.3-7.9c0-1.8-0.2-3.4-0.6-4.8c-0.4-1.4-1-2.5-1.8-3.4s-1.7-1.6-2.8-2.1c-1.1-0.5-2.3-0.7-3.6-0.7
		c-1.3,0-2.5,0.3-3.6,0.8c-1.1,0.5-1.9,1.3-2.6,2.3c-0.7,1-1.2,2.1-1.6,3.5C282.1,330.7,281.9,332.2,281.9,333.7z"/>
	<path id="XMLID_49_" class="st0" d="M308.1,343.8c0-0.6,0.2-1.1,0.6-1.5c0.4-0.4,0.9-0.6,1.5-0.6c0.6,0,1.1,0.2,1.5,0.6
		c0.4,0.4,0.6,0.9,0.6,1.5c0,0.5-0.2,1-0.6,1.5c-0.4,0.4-0.9,0.6-1.5,0.6c-0.5,0-1-0.2-1.5-0.6C308.3,344.9,308.1,344.4,308.1,343.8
		z"/>
	<path id="XMLID_51_" class="st0" d="M320.2,343.8c0-0.6,0.2-1.1,0.6-1.5c0.4-0.4,0.9-0.6,1.5-0.6c0.6,0,1.1,0.2,1.5,0.6
		c0.4,0.4,0.6,0.9,0.6,1.5c0,0.5-0.2,1-0.6,1.5c-0.4,0.4-0.9,0.6-1.5,0.6c-0.5,0-1-0.2-1.5-0.6C320.4,344.9,320.2,344.4,320.2,343.8
		z"/>
	<path id="XMLID_53_" class="st0" d="M332.4,343.8c0-0.6,0.2-1.1,0.6-1.5c0.4-0.4,0.9-0.6,1.5-0.6c0.6,0,1.1,0.2,1.5,0.6
		c0.4,0.4,0.6,0.9,0.6,1.5c0,0.5-0.2,1-0.6,1.5c-0.4,0.4-0.9,0.6-1.5,0.6c-0.5,0-1-0.2-1.5-0.6C332.6,344.9,332.4,344.4,332.4,343.8
		z"/>
</g>
<g id="XMLID_2_">
	<path id="XMLID_7_" class="st0" d="M168.8,376.6h-19.3c-0.6,0-0.9-0.3-0.9-1c0-0.6,0.3-1,0.9-1h38.4c0.6,0,0.9,0.3,0.9,1
		c0,0.6-0.3,1-0.9,1h-16.9v14.6h16.7c0.6,0,0.9,0.3,0.9,0.8c0,0.5-0.1,0.8-0.2,1c-0.1,0.1-0.4,0.2-0.7,0.2h-16.7v18.7h18.9
		c0.6,0,0.9,0.3,0.9,1c0,0.7-0.3,1-0.9,1h-43.6c-0.6,0-0.9-0.3-0.9-1c0-0.6,0.3-1,0.9-1h7.6v-26.8c0-0.5,0.4-0.8,1.1-0.8
		c0.7,0,1,0.3,1,0.8v26.8h12.8V376.6z"/>
	<path id="XMLID_10_" class="st0" d="M209.2,378.8h-13.6c-0.6,0-0.9-0.3-0.9-1c0-0.7,0.3-1,0.9-1h14.3c0.4-1.3,0.6-2.3,0.9-3.2
		c0.2-0.8,0.4-1.5,0.5-1.9c0.2-0.9,0.5-1.3,1.1-1.3c0.7,0,1.1,0.4,1.1,1.2c0,0.5-0.4,2.3-1.3,5.3h25.3c0.6,0,0.9,0.3,0.9,1
		c0,0.6-0.3,1-0.9,1h-26.1c-1.6,4.1-4.1,8.5-7.4,13.3v22.8c0,0.6-0.3,0.9-1,0.9c-0.6,0-1-0.3-1-0.9v-20.1c-0.5,0.7-1.1,1.5-1.8,2.2
		c-0.6,0.7-1.3,1.5-2,2.2c-1.3,1.4-2.3,2.3-2.7,2.6c-0.4,0.3-0.7,0.4-1,0.4c-0.2,0-0.3-0.1-0.5-0.2s-0.3-0.3-0.3-0.5s0-0.5,0-0.7
		c0.1-0.3,0.3-0.6,0.7-0.9c2.8-2.5,5.7-5.9,8.7-10.2c1.5-2.1,2.7-4.1,3.7-5.9S208.6,380.3,209.2,378.8z M223.3,393.6H236
		c0.6,0,0.9,0.3,0.9,1c0,0.6-0.3,1-0.9,1h-12.6V412h14.1c0.6,0,0.9,0.3,0.9,1c0,0.6-0.3,1-0.9,1h-30.7c-0.6,0-0.9-0.3-0.9-1
		c0-0.7,0.3-1,0.9-1h14.5v-16.5h-13.1c-0.6,0-0.9-0.3-0.9-1c0-0.7,0.3-1,0.9-1h13.1v-11c0-0.6,0.3-0.9,1-0.9c0.7,0,1.1,0.3,1.1,0.9
		V393.6z"/>
	<path id="XMLID_16_" class="st0" d="M257.1,382.5h14.7c-0.2-2.6-0.4-4.8-0.5-6.5c-0.1-1.7-0.2-3-0.2-3.9c0-0.9,0.3-1.3,1-1.3
		c0.6,0,1,0.5,1,1.4c0,1.3,0.1,2.8,0.2,4.5c0.1,1.7,0.3,3.7,0.5,5.9h11.7c0.3,0,0.6,0.1,0.7,0.2c0.1,0.1,0.2,0.4,0.2,1
		s-0.3,0.8-0.9,0.8h-11.5c0.6,6.8,1.5,12.1,2.6,15.9c2.8-4.1,4.7-8.2,5.6-12.3c0.1-0.8,0.5-1.2,1.2-1.2c0.6,0,0.9,0.4,0.9,1.1
		c0,0.7-0.6,2.5-1.8,5.5c-0.6,1.5-1.3,3-2.2,4.5c-0.8,1.5-1.8,3.1-3,4.8c0.9,2.5,2,4.7,3.2,6.5c1.3,1.9,2.1,2.9,2.6,2.9
		c0.6,0,1.2-2.4,1.8-7.2c0.1-0.8,0.4-1.2,0.8-1.2c0.6,0,1,0.4,1,1.2c0,1.4-0.3,3.3-0.9,5.7c-0.6,2.5-1,3.9-1.3,4.2
		c-0.2,0.3-0.6,0.5-1.2,0.5c-0.5,0-1.1-0.3-1.6-0.9c-0.5-0.6-1.4-1.8-2.6-3.6c-0.6-0.9-1.1-1.9-1.6-2.9c-0.5-1-1-2.2-1.4-3.4
		c-1.8,2.1-3.7,4-5.6,5.8c-2,1.8-3.1,2.8-3.5,3c-0.4,0.2-0.7,0.3-0.9,0.3c-0.2,0-0.3-0.1-0.5-0.2c-0.2-0.1-0.3-0.3-0.3-0.5
		c-0.1-0.2-0.1-0.4,0-0.7s0.3-0.5,0.7-0.8c4-3.1,7.1-6.2,9.3-9.2c-1.5-5-2.6-10.9-3.2-17.8h-29.2c-0.6,0-0.9-0.3-0.9-0.8
		s0.1-0.8,0.2-1c0.1-0.1,0.4-0.2,0.7-0.2h12.4v-5.2h-9.8c-0.6,0-0.9-0.2-0.9-0.7c0-0.5,0.1-0.8,0.2-0.9c0.1-0.1,0.4-0.2,0.7-0.2h9.8
		V372c0-0.6,0.3-0.9,0.9-0.9c0.6,0,1,0.3,1,0.9v3.4h10.8c0.3,0,0.6,0.1,0.7,0.2c0.1,0.1,0.2,0.4,0.2,0.9c0,0.5-0.3,0.7-0.9,0.7
		h-10.8V382.5z M250.6,391.4h-6c-0.6,0-0.9-0.3-0.9-1c0-0.6,0.3-1,0.9-1h7.3c0.4-0.5,0.7-1.1,1-1.5c0.3-0.5,0.5-0.9,0.8-1.3
		c0.5-0.9,1-1.4,1.2-1.4c0.3,0,0.6,0.1,0.8,0.2c0.2,0.2,0.3,0.4,0.3,0.6c0,0.1,0,0.2-0.1,0.4c0,0.1-0.1,0.3-0.3,0.6
		c-0.1,0.2-0.3,0.6-0.6,0.9c-0.3,0.4-0.6,0.9-1,1.5h12.4c0.6,0,0.9,0.3,0.9,1c0,0.6-0.3,1-0.9,1h-13.7c-0.8,1.2-1.6,2.2-2.4,3.2
		s-1.4,1.8-2.1,2.6c-0.3,0.4-0.4,0.6-0.4,0.9c0,0.5,0.6,0.7,1.7,0.7h6.4v-4.5c0-0.6,0.3-0.9,0.9-0.9c0.6,0,1,0.3,1,0.9v4.5h7.8
		c0.5,0,0.8,0.3,0.8,1c0,0.6-0.3,0.9-0.8,0.9H258v5.5c1.6-0.2,3.1-0.3,4.7-0.5c1.6-0.1,3.1-0.3,4.7-0.5c0.5,0,0.8,0.3,0.8,0.8
		s-0.3,0.9-1,1.1c-0.3,0.1-1.2,0.2-2.8,0.3c-1.5,0.1-3.7,0.3-6.5,0.6v6.7c0,0.6-0.3,0.9-1,0.9c-0.6,0-0.9-0.3-0.9-0.9v-6.6
		c-3.1,0.3-5.7,0.4-7.8,0.6s-3.7,0.2-4.8,0.2c-0.9,0-1.3-0.3-1.3-1c0-0.4,0.1-0.6,0.3-0.7c0.2-0.1,0.6-0.2,1.2-0.2
		c3.1-0.1,7.2-0.3,12.4-0.7v-5.7h-6.3c-1.1,0-2-0.1-2.7-0.3s-1.1-0.5-1.4-0.8c-0.3-0.3-0.4-0.7-0.3-1.2c0.1-0.4,0.3-0.9,0.7-1.3
		c0.8-1,1.6-1.9,2.4-2.8C249.2,393.3,249.9,392.3,250.6,391.4z M284.6,379.5c0,0.2-0.1,0.3-0.2,0.5s-0.3,0.3-0.5,0.4
		c-0.2,0.1-0.4,0-0.7-0.1s-0.6-0.4-1-0.8c-1.6-2-3.3-3.7-5.2-5.2c-0.3-0.3-0.5-0.5-0.6-0.7c-0.1-0.2-0.1-0.5,0-0.6
		c0.1-0.2,0.2-0.3,0.4-0.5c0.2-0.1,0.4-0.2,0.6-0.2c0.3,0,0.7,0.2,1.2,0.7c0.6,0.5,1.5,1.4,2.7,2.6c1.2,1.2,2.1,2.1,2.5,2.6
		S284.6,379.1,284.6,379.5z"/>
	<path id="XMLID_28_" class="st0" d="M309,374.6c-0.3-0.9-0.4-1.6-0.4-2c0-0.4,0.3-0.7,0.7-0.8c0.3-0.1,0.6-0.1,0.9,0.2
		c0.3,0.3,0.6,0.9,0.8,1.8c2.3,8.8,5.3,16.5,8.9,23.1s8,11.9,13.3,15.9c0.8,0.6,1.3,1.1,1.4,1.5c0.1,0.4,0,0.7-0.3,1.1
		c-0.3,0.3-0.5,0.4-0.9,0.3c-0.3-0.1-0.9-0.4-1.7-1.1c-2.1-1.8-4.1-3.7-6-5.8c-1.9-2.1-3.6-4.4-5.2-7c-1.6-2.6-3.2-5.4-4.6-8.5
		c-1.5-3.1-2.9-6.6-4.2-10.5c-0.7,3-1.7,6-2.9,9c-1.2,2.9-2.6,5.8-4.3,8.5c-1.6,2.7-3.5,5.3-5.6,7.7c-2.1,2.4-4.5,4.7-7.1,6.7
		c-0.7,0.5-1.2,0.8-1.5,0.8c-0.3,0-0.6-0.1-0.8-0.4c-0.2-0.3-0.2-0.6,0-1c0.1-0.4,0.5-0.8,1.2-1.3c2.5-1.8,4.7-3.9,6.7-6.2
		c2-2.3,3.9-4.9,5.5-7.7s3.1-5.8,4.4-9c1.3-3.2,2.4-6.7,3.3-10.3c-0.3-0.8-0.5-1.6-0.8-2.4C309.5,376.3,309.2,375.4,309,374.6z"/>
</g>
<g id="XMLID_6_">
</g>
<g id="XMLID_55_">
</g>
<g id="XMLID_56_">
</g>
<g id="XMLID_57_">
</g>
<g id="XMLID_58_">
</g>
<g id="XMLID_59_">
</g>
<g id="XMLID_60_">
</g>
<g id="XMLID_61_">
</g>
<g id="XMLID_62_">
</g>
<g id="XMLID_63_">
</g>
<g id="XMLID_64_">
</g>
<g id="XMLID_65_">
</g>
<g id="XMLID_66_">
</g>
<g id="XMLID_67_">
</g>
<g id="XMLID_68_">
</g>
</svg>
