<?xml version="1.0" encoding="utf-8"?>
<!-- Generator: Adobe Illustrator 19.0.0, SVG Export Plug-In . SVG Version: 6.00 Build 0)  -->
<svg version="1.1" id="图层_1" xmlns="http://www.w3.org/2000/svg" xmlns:xlink="http://www.w3.org/1999/xlink" x="0px" y="0px"
	 viewBox="0 0 640 480" style="enable-background:new 0 0 640 480;" xml:space="preserve">
<style type="text/css">
	.st0{fill:url(#XMLID_4_);}
	.st1{fill:#515151;}
</style>
<linearGradient id="XMLID_4_" gradientUnits="userSpaceOnUse" x1="320" y1="-1.436638e-08" x2="320" y2="480">
	<stop  offset="0" style="stop-color:#D6ECFF"/>
	<stop  offset="1" style="stop-color:#68B3E4"/>
</linearGradient>
<rect id="XMLID_2_" class="st0" width="640" height="480"/>
<g id="XMLID_50_">
	<path id="XMLID_51_" class="st1" d="M248.8,381.9h-19.3c-0.6,0-0.9-0.3-0.9-1c0-0.6,0.3-1,0.9-1h38.4c0.6,0,0.9,0.3,0.9,1
		c0,0.6-0.3,1-0.9,1h-16.9v14.6h16.7c0.6,0,0.9,0.3,0.9,0.8c0,0.5-0.1,0.8-0.2,1c-0.1,0.1-0.4,0.2-0.7,0.2h-16.7v18.7h18.9
		c0.6,0,0.9,0.3,0.9,1c0,0.7-0.3,1-0.9,1h-43.6c-0.6,0-0.9-0.3-0.9-1c0-0.6,0.3-1,0.9-1h7.6v-26.8c0-0.5,0.4-0.8,1.1-0.8
		c0.7,0,1,0.3,1,0.8v26.8h12.8V381.9z"/>
	<path id="XMLID_53_" class="st1" d="M289.2,384.2h-13.6c-0.6,0-0.9-0.3-0.9-1c0-0.7,0.3-1,0.9-1h14.3c0.4-1.3,0.6-2.3,0.9-3.2
		s0.4-1.5,0.5-1.9c0.2-0.9,0.5-1.3,1.1-1.3c0.7,0,1.1,0.4,1.1,1.2c0,0.5-0.4,2.3-1.3,5.3h25.3c0.6,0,0.9,0.3,0.9,1
		c0,0.6-0.3,1-0.9,1h-26.1c-1.6,4.1-4.1,8.5-7.4,13.3v22.8c0,0.6-0.3,0.9-1,0.9c-0.6,0-1-0.3-1-0.9v-20.1c-0.5,0.7-1.1,1.5-1.8,2.2
		c-0.6,0.7-1.3,1.5-2,2.2c-1.3,1.4-2.3,2.3-2.7,2.6c-0.4,0.3-0.7,0.4-1,0.4c-0.2,0-0.3-0.1-0.5-0.2c-0.2-0.1-0.3-0.3-0.3-0.5
		c-0.1-0.2,0-0.5,0-0.7c0.1-0.3,0.3-0.6,0.7-0.9c2.8-2.5,5.7-5.9,8.7-10.2c1.5-2.1,2.7-4.1,3.7-5.9
		C287.9,387.4,288.6,385.7,289.2,384.2z M303.3,398.9H316c0.6,0,0.9,0.3,0.9,1c0,0.6-0.3,1-0.9,1h-12.6v16.5h14.1
		c0.6,0,0.9,0.3,0.9,1c0,0.6-0.3,1-0.9,1h-30.7c-0.6,0-0.9-0.3-0.9-1c0-0.7,0.3-1,0.9-1h14.5v-16.5h-13.1c-0.6,0-0.9-0.3-0.9-1
		c0-0.7,0.3-1,0.9-1h13.1v-11c0-0.6,0.3-0.9,1-0.9c0.7,0,1.1,0.3,1.1,0.9V398.9z"/>
	<path id="XMLID_56_" class="st1" d="M337.1,387.9h14.7c-0.2-2.6-0.4-4.8-0.5-6.5c-0.1-1.7-0.2-3-0.2-3.9c0-0.9,0.3-1.3,1-1.3
		c0.6,0,1,0.5,1,1.4c0,1.3,0.1,2.8,0.2,4.5c0.1,1.7,0.3,3.7,0.5,5.9h11.7c0.3,0,0.6,0.1,0.7,0.2c0.1,0.1,0.2,0.4,0.2,1
		c0,0.5-0.3,0.8-0.9,0.8h-11.5c0.6,6.8,1.5,12.1,2.6,15.9c2.8-4.1,4.7-8.2,5.6-12.3c0.1-0.8,0.5-1.2,1.2-1.2c0.6,0,0.9,0.4,0.9,1.1
		c0,0.7-0.6,2.5-1.8,5.5c-0.6,1.5-1.3,3-2.2,4.5c-0.8,1.5-1.8,3.1-3,4.8c0.9,2.5,2,4.7,3.2,6.5c1.3,1.9,2.1,2.9,2.6,2.9
		c0.6,0,1.2-2.4,1.8-7.2c0.1-0.8,0.4-1.2,0.8-1.2c0.6,0,1,0.4,1,1.2c0,1.4-0.3,3.3-0.9,5.7c-0.6,2.5-1,3.9-1.3,4.2
		c-0.2,0.3-0.6,0.5-1.2,0.5c-0.5,0-1.1-0.3-1.6-0.9c-0.5-0.6-1.4-1.8-2.6-3.6c-0.6-0.9-1.1-1.9-1.6-2.9c-0.5-1-1-2.2-1.4-3.4
		c-1.8,2.1-3.7,4-5.6,5.8c-2,1.8-3.1,2.8-3.5,3c-0.4,0.2-0.7,0.3-0.9,0.3c-0.2,0-0.3-0.1-0.5-0.2c-0.2-0.1-0.3-0.3-0.3-0.5
		c-0.1-0.2-0.1-0.4,0-0.7c0.1-0.3,0.3-0.5,0.7-0.8c4-3.1,7.1-6.2,9.3-9.2c-1.5-5-2.6-10.9-3.2-17.8h-29.2c-0.6,0-0.9-0.3-0.9-0.8
		c0-0.5,0.1-0.8,0.2-1c0.1-0.1,0.4-0.2,0.7-0.2h12.4v-5.2h-9.8c-0.6,0-0.9-0.2-0.9-0.7c0-0.5,0.1-0.8,0.2-0.9
		c0.1-0.1,0.4-0.2,0.7-0.2h9.8v-3.4c0-0.6,0.3-0.9,0.9-0.9c0.6,0,1,0.3,1,0.9v3.4h10.8c0.3,0,0.6,0.1,0.7,0.2
		c0.1,0.1,0.2,0.4,0.2,0.9c0,0.5-0.3,0.7-0.9,0.7h-10.8V387.9z M330.6,396.8h-6c-0.6,0-0.9-0.3-0.9-1c0-0.6,0.3-1,0.9-1h7.3
		c0.4-0.5,0.7-1.1,1-1.5c0.3-0.5,0.5-0.9,0.8-1.3c0.5-0.9,1-1.4,1.2-1.4c0.3,0,0.6,0.1,0.8,0.2c0.2,0.2,0.3,0.4,0.3,0.6
		c0,0.1,0,0.2-0.1,0.4c0,0.1-0.1,0.3-0.3,0.6c-0.1,0.2-0.3,0.6-0.6,0.9c-0.3,0.4-0.6,0.9-1,1.5h12.4c0.6,0,0.9,0.3,0.9,1
		c0,0.6-0.3,1-0.9,1h-13.7c-0.8,1.2-1.6,2.2-2.4,3.2c-0.7,1-1.4,1.8-2.1,2.6c-0.3,0.4-0.4,0.6-0.4,0.9c0,0.5,0.6,0.7,1.7,0.7h6.4
		v-4.5c0-0.6,0.3-0.9,0.9-0.9c0.6,0,1,0.3,1,0.9v4.5h7.8c0.5,0,0.8,0.3,0.8,1c0,0.6-0.3,0.9-0.8,0.9H338v5.5
		c1.6-0.2,3.1-0.3,4.7-0.5c1.6-0.1,3.1-0.3,4.7-0.5c0.5,0,0.8,0.3,0.8,0.8s-0.3,0.9-1,1.1c-0.3,0.1-1.2,0.2-2.8,0.3
		c-1.5,0.1-3.7,0.3-6.5,0.6v6.7c0,0.6-0.3,0.9-1,0.9c-0.6,0-0.9-0.3-0.9-0.9v-6.6c-3.1,0.3-5.7,0.4-7.8,0.6s-3.7,0.2-4.8,0.2
		c-0.9,0-1.3-0.3-1.3-1c0-0.4,0.1-0.6,0.3-0.7c0.2-0.1,0.6-0.2,1.2-0.2c3.1-0.1,7.2-0.3,12.4-0.7V406h-6.3c-1.1,0-2-0.1-2.7-0.3
		c-0.7-0.2-1.1-0.5-1.4-0.8c-0.3-0.3-0.4-0.7-0.3-1.2c0.1-0.4,0.3-0.9,0.7-1.3c0.8-1,1.6-1.9,2.4-2.8
		C329.2,398.6,329.9,397.7,330.6,396.8z M364.6,384.9c0,0.2-0.1,0.3-0.2,0.5s-0.3,0.3-0.5,0.4c-0.2,0.1-0.4,0-0.7-0.1
		s-0.6-0.4-1-0.8c-1.6-2-3.3-3.7-5.2-5.2c-0.3-0.3-0.5-0.5-0.6-0.7c-0.1-0.2-0.1-0.5,0-0.6c0.1-0.2,0.2-0.3,0.4-0.5s0.4-0.2,0.6-0.2
		c0.3,0,0.7,0.2,1.2,0.7c0.6,0.5,1.5,1.4,2.7,2.6c1.2,1.2,2.1,2.1,2.5,2.6S364.6,384.5,364.6,384.9z"/>
	<path id="XMLID_60_" class="st1" d="M389,379.9c-0.3-0.9-0.4-1.6-0.4-2c0-0.4,0.3-0.7,0.7-0.8c0.3-0.1,0.6-0.1,0.9,0.2
		c0.3,0.3,0.6,0.9,0.8,1.8c2.3,8.8,5.3,16.5,8.9,23.1s8,11.9,13.3,15.9c0.8,0.6,1.3,1.1,1.4,1.5s0,0.7-0.3,1.1
		c-0.3,0.3-0.5,0.4-0.9,0.3s-0.9-0.4-1.7-1.1c-2.1-1.8-4.1-3.7-6-5.8c-1.9-2.1-3.6-4.4-5.2-7c-1.6-2.6-3.2-5.4-4.6-8.5
		s-2.9-6.6-4.2-10.5c-0.7,3-1.7,6-2.9,9c-1.2,2.9-2.6,5.8-4.3,8.5c-1.6,2.7-3.5,5.3-5.6,7.7c-2.1,2.4-4.5,4.7-7.1,6.7
		c-0.7,0.5-1.2,0.8-1.5,0.8c-0.3,0-0.6-0.1-0.8-0.4c-0.2-0.3-0.2-0.6,0-1c0.1-0.4,0.5-0.8,1.2-1.3c2.5-1.8,4.7-3.9,6.7-6.2
		c2-2.3,3.9-4.9,5.5-7.7s3.1-5.8,4.4-9c1.3-3.2,2.4-6.7,3.3-10.3c-0.3-0.8-0.5-1.6-0.8-2.4C389.5,381.6,389.2,380.8,389,379.9z"/>
</g>
<g id="XMLID_3_">
	<path id="XMLID_11_" class="st1" d="M236.8,340.1c0.9,0,1.4,0.3,1.4,1c0,0.7-0.5,1-1.4,1h-11.9c-1.2,0-1.9-0.5-1.9-1.5v-30.1
		c0-0.9,0.4-1.4,1.1-1.4c0.7,0,1.1,0.5,1.1,1.4v29.6H236.8z"/>
	<path id="XMLID_17_" class="st1" d="M254.3,316.7c2,0,3.6,0.4,5.1,1.1c1.4,0.8,2.6,1.8,3.6,3c0.9,1.2,1.6,2.7,2.1,4.3
		c0.4,1.6,0.7,3.3,0.7,5c0,1.7-0.2,3.4-0.7,5c-0.5,1.6-1.2,3-2.1,4.2c-0.9,1.2-2.1,2.2-3.6,2.9c-1.4,0.7-3.1,1.1-5,1.1
		c-1.9,0-3.6-0.4-5-1.1c-1.4-0.8-2.6-1.7-3.5-3c-0.9-1.2-1.6-2.6-2-4.2c-0.4-1.6-0.7-3.3-0.7-5c0-1.7,0.2-3.4,0.6-5
		c0.4-1.6,1.1-3,2-4.2c0.9-1.2,2.1-2.2,3.5-3C250.6,317.1,252.3,316.7,254.3,316.7z M254.3,341.4c1.4,0,2.7-0.3,3.8-0.8
		c1.1-0.6,2.1-1.3,2.9-2.3c0.8-1,1.4-2.2,1.8-3.6c0.4-1.4,0.6-2.9,0.6-4.6s-0.2-3.2-0.6-4.6c-0.4-1.4-1-2.6-1.8-3.6
		c-0.8-1-1.7-1.8-2.9-2.4s-2.5-0.9-4-0.9c-1.5,0-2.8,0.3-3.9,0.8c-1.1,0.6-2,1.3-2.8,2.4c-0.7,1-1.3,2.2-1.6,3.6
		c-0.4,1.4-0.5,2.9-0.5,4.5c0,1.6,0.2,3.1,0.6,4.5c0.4,1.4,1,2.6,1.8,3.6c0.8,1,1.7,1.8,2.8,2.4S252.8,341.4,254.3,341.4z"/>
	<path id="XMLID_21_" class="st1" d="M289.1,337.1c-0.8,1.7-1.9,3-3.3,4.1c-1.4,1.1-3.1,1.6-5.3,1.6c-1.6,0-3-0.3-4.3-1
		c-1.3-0.6-2.4-1.5-3.4-2.7c-0.9-1.1-1.7-2.5-2.2-4.1c-0.5-1.6-0.8-3.3-0.8-5.1c0-2.2,0.3-4.2,0.9-5.9c0.6-1.7,1.4-3,2.4-4.1
		c1-1.1,2.1-1.9,3.5-2.4c1.3-0.5,2.7-0.8,4.2-0.7c1.1,0,2,0.2,3,0.5s1.7,0.8,2.4,1.4c0.7,0.6,1.3,1.2,1.8,2c0.5,0.7,0.9,1.5,1.2,2.3
		v-4.4c0-1,0.4-1.5,1.1-1.5c0.7,0,1.1,0.5,1.1,1.5V341c0,1-0.4,1.5-1.2,1.5s-1.2-0.5-1.2-1.5V337.1z M272.2,330
		c0,1.6,0.2,3.1,0.6,4.4c0.4,1.3,1,2.4,1.7,3.4c0.7,1,1.6,1.7,2.7,2.2c1.1,0.5,2.3,0.8,3.7,0.8c1.4,0,2.6-0.3,3.6-0.9
		c1-0.6,1.9-1.4,2.5-2.3c0.7-1,1.2-2.1,1.5-3.4c0.3-1.3,0.5-2.7,0.5-4.1c0-1.4-0.2-2.8-0.6-4.2c-0.4-1.3-0.9-2.5-1.6-3.6
		c-0.7-1-1.6-1.9-2.6-2.5c-1-0.6-2.2-0.9-3.5-0.9c-1.5,0-2.9,0.3-4,0.8c-1.1,0.6-2,1.3-2.7,2.3c-0.7,1-1.2,2.2-1.5,3.5
		C272.4,327,272.2,328.5,272.2,330z"/>
	<path id="XMLID_25_" class="st1" d="M315,337.1c-0.8,1.7-1.9,3-3.3,4.1c-1.4,1.1-3.1,1.6-5.3,1.6c-1.6,0-3-0.3-4.3-1
		c-1.3-0.6-2.4-1.5-3.4-2.7c-0.9-1.1-1.7-2.5-2.2-4.1c-0.5-1.6-0.8-3.3-0.8-5.1c0-2.2,0.3-4.2,0.9-5.9c0.6-1.7,1.4-3,2.4-4.1
		c1-1.1,2.1-1.9,3.5-2.4c1.3-0.5,2.7-0.8,4.2-0.7c1.1,0,2,0.2,3,0.5s1.7,0.8,2.4,1.4c0.7,0.6,1.3,1.2,1.8,2c0.5,0.7,0.9,1.5,1.2,2.3
		v-14.6c0-1,0.4-1.5,1.1-1.5c0.7,0,1.1,0.5,1.1,1.5V341c0,1-0.4,1.5-1.2,1.5s-1.2-0.5-1.2-1.5V337.1z M298.1,330
		c0,1.6,0.2,3.1,0.6,4.4c0.4,1.3,1,2.4,1.7,3.4c0.7,1,1.6,1.7,2.7,2.2c1.1,0.5,2.3,0.8,3.7,0.8c1.4,0,2.6-0.3,3.6-0.9
		c1-0.6,1.9-1.4,2.5-2.3c0.7-1,1.2-2.1,1.5-3.4c0.3-1.3,0.5-2.7,0.5-4.1c0-1.4-0.2-2.8-0.6-4.2c-0.4-1.3-0.9-2.5-1.6-3.6
		c-0.7-1-1.6-1.9-2.6-2.5c-1-0.6-2.2-0.9-3.5-0.9c-1.5,0-2.9,0.3-4,0.8c-1.1,0.6-2,1.3-2.7,2.3c-0.7,1-1.2,2.2-1.5,3.5
		C298.3,327,298.1,328.5,298.1,330z"/>
	<path id="XMLID_36_" class="st1" d="M323.9,311c0-0.5,0.2-1,0.6-1.4c0.4-0.4,0.8-0.6,1.4-0.6s1,0.2,1.4,0.6
		c0.4,0.4,0.6,0.8,0.6,1.4c0,0.5-0.2,1-0.6,1.4c-0.4,0.4-0.8,0.6-1.4,0.6s-1-0.2-1.4-0.6C324.1,312,323.9,311.6,323.9,311z
		 M326.9,341.1c0,0.6-0.1,1-0.2,1.2s-0.4,0.3-0.9,0.3s-0.7-0.1-0.9-0.3c-0.2-0.2-0.2-0.6-0.2-1.2v-22.4c0-0.6,0.1-1,0.3-1.2
		s0.5-0.3,0.8-0.3c0.4,0,0.7,0.1,0.9,0.3c0.2,0.2,0.2,0.6,0.2,1.2V341.1z"/>
	<path id="XMLID_39_" class="st1" d="M352,326.4c0-1.4-0.2-2.6-0.5-3.6c-0.3-1-0.8-1.8-1.4-2.3c-0.6-0.6-1.3-1-2.1-1.2
		c-0.8-0.3-1.7-0.4-2.7-0.4c-0.9,0-1.8,0.2-2.7,0.5c-0.9,0.3-1.8,0.8-2.6,1.4c-0.8,0.6-1.5,1.4-2,2.3c-0.5,0.9-0.8,2-0.8,3.2v14.9
		c0,1-0.4,1.5-1.1,1.5s-1.1-0.5-1.1-1.5v-22.4c0-0.6,0.1-1,0.3-1.2c0.2-0.2,0.5-0.3,0.9-0.3s0.7,0.1,0.8,0.3
		c0.1,0.2,0.2,0.6,0.2,1.2v2.9c0.3-0.6,0.7-1.2,1.3-1.7c0.6-0.6,1.2-1.1,2-1.6s1.6-0.8,2.5-1.1s1.8-0.4,2.8-0.4
		c1.2,0,2.2,0.2,3.3,0.5c1,0.3,1.9,0.8,2.7,1.5c0.8,0.7,1.4,1.6,1.8,2.7c0.4,1.1,0.7,2.4,0.7,4v15.6c0,0.6-0.1,1-0.2,1.2
		c-0.2,0.2-0.4,0.3-0.9,0.3c-0.4,0-0.7-0.1-0.9-0.3s-0.2-0.6-0.2-1.2V326.4z"/>
	<path id="XMLID_41_" class="st1" d="M381.4,341.5c0,1.3-0.2,2.6-0.7,3.7c-0.5,1.1-1.2,2.1-2.2,2.9c-0.9,0.8-2.1,1.4-3.5,1.9
		c-1.4,0.4-3,0.7-4.8,0.7c-0.6,0-1.4-0.1-2.4-0.3s-2-0.4-3-0.8c-1-0.3-1.8-0.7-2.5-1.2c-0.7-0.5-1.1-1-1.1-1.6c0-0.5,0.2-0.9,0.5-1
		c0.3-0.2,0.8-0.1,1.3,0.3c0.4,0.4,0.8,0.7,1.4,1c0.6,0.3,1.2,0.6,1.9,0.8c0.7,0.2,1.4,0.4,2.1,0.5c0.7,0.1,1.4,0.2,2.1,0.2
		c1.2,0,2.4-0.2,3.5-0.5c1.1-0.3,2-0.8,2.7-1.3c0.8-0.6,1.4-1.3,1.8-2.2c0.4-0.9,0.6-1.9,0.6-3v-3.9c-0.8,1.7-2,2.9-3.6,3.7
		c-1.6,0.8-3.4,1.2-5.6,1.2c-1.4,0-2.8-0.3-4.1-0.9c-1.3-0.6-2.4-1.5-3.3-2.5s-1.6-2.4-2.2-3.9c-0.5-1.5-0.8-3.2-0.8-5.1
		c0-2.2,0.3-4.2,1-5.8c0.6-1.6,1.5-3,2.5-4.1c1-1.1,2.2-1.9,3.5-2.4c1.3-0.5,2.6-0.8,4-0.7c2.2,0.1,4,0.6,5.5,1.7
		c1.5,1.1,2.5,2.4,3.1,4v-3.9c0-1,0.4-1.5,1.1-1.5c0.7,0,1.1,0.5,1.1,1.5V341.5z M361.9,329.9c0,1.6,0.2,3,0.6,4.3
		c0.4,1.3,1,2.4,1.8,3.3c0.8,0.9,1.7,1.6,2.7,2.1c1,0.5,2.1,0.7,3.4,0.7c2.8,0,4.9-0.8,6.5-2.5c1.5-1.6,2.3-4.3,2.3-7.9
		c0-1.8-0.2-3.4-0.6-4.8s-1-2.5-1.8-3.4s-1.7-1.6-2.8-2.1c-1.1-0.5-2.3-0.7-3.6-0.7c-1.3,0-2.5,0.3-3.6,0.8
		c-1.1,0.5-1.9,1.3-2.6,2.3c-0.7,1-1.2,2.1-1.6,3.5C362.1,326.9,361.9,328.4,361.9,329.9z"/>
	<path id="XMLID_44_" class="st1" d="M388.1,340c0-0.6,0.2-1.1,0.6-1.5c0.4-0.4,0.9-0.6,1.5-0.6c0.6,0,1.1,0.2,1.5,0.6
		c0.4,0.4,0.6,0.9,0.6,1.5c0,0.5-0.2,1-0.6,1.5c-0.4,0.4-0.9,0.6-1.5,0.6c-0.5,0-1-0.2-1.5-0.6C388.3,341.1,388.1,340.6,388.1,340z"
		/>
	<path id="XMLID_46_" class="st1" d="M400.2,340c0-0.6,0.2-1.1,0.6-1.5c0.4-0.4,0.9-0.6,1.5-0.6c0.6,0,1.1,0.2,1.5,0.6
		c0.4,0.4,0.6,0.9,0.6,1.5c0,0.5-0.2,1-0.6,1.5c-0.4,0.4-0.9,0.6-1.5,0.6c-0.5,0-1-0.2-1.5-0.6C400.4,341.1,400.2,340.6,400.2,340z"
		/>
	<path id="XMLID_48_" class="st1" d="M412.4,340c0-0.6,0.2-1.1,0.6-1.5c0.4-0.4,0.9-0.6,1.5-0.6c0.6,0,1.1,0.2,1.5,0.6
		c0.4,0.4,0.6,0.9,0.6,1.5c0,0.5-0.2,1-0.6,1.5c-0.4,0.4-0.9,0.6-1.5,0.6c-0.5,0-1-0.2-1.5-0.6C412.6,341.1,412.4,340.6,412.4,340z"
		/>
</g>
<g id="XMLID_8_">
	<g id="XMLID_14_">
		<g id="XMLID_26_">
			<path class="st1" d="M333.7,74.8c-7.6,0-15.2,0-22.8,0c-7.2,0-16.4-1.4-23.4,0.9c-11.2,3.7-15.3,16.5-9.8,26.5
				c3.2,5.9,6.7,11.7,10.1,17.5c5.2,9.1,10.5,18.1,15.7,27.2c3.7,6.4,9.9,14.1,7.9,21.9c-1.5,6.1-6.3,12.2-9.4,17.5
				c-5.3,9.1-10.5,18.3-15.8,27.4c-3.5,6.1-9.1,13.1-10.7,20.2c-1.4,6.4,0.9,13.2,5.8,17.5c4.8,4.2,10.4,4.4,16.4,4.4
				c1.9,0,1.9-3,0-3c-6.5,0-12.6-0.5-16.8-6.2c-3.8-5.2-3.5-11.4-0.6-16.9c3-5.7,6.5-11.2,9.7-16.9c7.4-12.8,15.4-25.4,22.2-38.5
				c4.1-7.9,1.9-14.8-2.2-21.9c-4.2-7.3-8.4-14.6-12.7-22c-4.6-7.9-9.1-15.8-13.7-23.7c-4.3-7.5-9-15.6-2.2-23.7
				c6.4-7.5,19-5.3,27.8-5.3c8.1,0,16.2,0,24.3,0C335.6,77.8,335.6,74.8,333.7,74.8L333.7,74.8z"/>
		</g>
	</g>
	<g id="XMLID_15_">
		<g id="XMLID_27_">
			<path class="st1" d="M306.3,255.8c7.6,0,15.2,0,22.8,0c7.2,0,16.4,1.4,23.4-0.9c11.2-3.7,15.3-16.5,9.8-26.5
				c-3.2-5.9-6.7-11.7-10.1-17.5c-5.2-9.1-10.5-18.1-15.7-27.2c-3.7-6.4-9.9-14.1-7.9-21.9c1.5-6.1,6.3-12.2,9.4-17.5
				c5.3-9.1,10.5-18.3,15.8-27.4c3.5-6.1,9.1-13.1,10.7-20.2c1.4-6.4-0.9-13.2-5.8-17.5c-4.8-4.2-10.4-4.4-16.4-4.4
				c-1.9,0-1.9,3,0,3c6.5,0,12.6,0.5,16.8,6.2c3.8,5.2,3.5,11.4,0.6,16.9c-3,5.7-6.5,11.2-9.7,16.9c-7.4,12.8-15.4,25.4-22.2,38.5
				c-4.1,7.9-1.9,14.8,2.2,21.9c4.2,7.3,8.4,14.6,12.7,22c4.6,7.9,9.1,15.8,13.7,23.7c4.3,7.5,9,15.6,2.2,23.7
				c-6.4,7.5-19,5.3-27.8,5.3c-8.1,0-16.2,0-24.3,0C304.4,252.8,304.4,255.8,306.3,255.8L306.3,255.8z"/>
		</g>
	</g>
</g>
</svg>
